
<?xml version="1.0" encoding="utf-8"?>
<!-- Generator: Adobe Illustrator 27.5.0, SVG Export Plug-In . SVG Version: 6.00 Build 0)  -->
<svg version="1.1" id="Layer_1" xmlns="http://www.w3.org/2000/svg" xmlns:xlink="http://www.w3.org/1999/xlink" x="0px" y="0px"
	 viewBox="0 0 899.999 900" style="enable-background:new 0 0 899.999 900;" xml:space="preserve">
<radialGradient id="SVGID_1_" cx="449.9998" cy="450" r="326.7173" gradientUnits="userSpaceOnUse">
	<stop  offset="0" style="stop-color:#FFFA7B"/>
	<stop  offset="0.2681" style="stop-color:#FFF270"/>
	<stop  offset="0.7404" style="stop-color:#FFDD52"/>
	<stop  offset="1" style="stop-color:#FFCF3F"/>
</radialGradient>
<circle style="opacity:0.5;fill:url(#SVGID_1_);" cx="450" cy="450" r="326.717"/>
<g style="opacity:0.2;">
	<path style="fill:#231F20;" d="M798.323,757.19l-600.342-0.002c-9.516,0-17.229,5.965-17.229,13.323s7.713,13.323,17.229,13.323
		l600.342,0.002c9.516,0,17.229-5.965,17.229-13.323C815.553,763.156,807.839,757.19,798.323,757.19z"/>
</g>
<g>
	<g>
		<g>
			<path style="fill:#F1F2F2;" d="M788.255,319.136h-582.94c-12.083,0-21.878,9.796-21.878,21.878v410.573
				c0,12.082,9.795,21.877,21.878,21.877h582.94c12.081,0,21.877-9.795,21.877-21.877V341.015
				C810.132,328.932,800.336,319.136,788.255,319.136z"/>
			<path style="fill:#141519;" d="M788.255,327.888h-582.94c-7.238,0-13.127,5.889-13.127,13.127v410.573
				c0,7.238,5.889,13.126,13.127,13.126h582.94c7.237,0,13.127-5.889,13.127-13.126V341.015
				C801.381,333.776,795.491,327.888,788.255,327.888z"/>
			
				<radialGradient id="SVGID_00000018944488218777359040000014744160011541911482_" cx="281.761" cy="582.1072" r="1.0779" gradientUnits="userSpaceOnUse">
				<stop  offset="0" style="stop-color:#4092C4"/>
				<stop  offset="0.2936" style="stop-color:#418EC7"/>
				<stop  offset="0.5665" style="stop-color:#4583CF"/>
				<stop  offset="0.8304" style="stop-color:#4B70DD"/>
				<stop  offset="1" style="stop-color:#5060E9"/>
			</radialGradient>
			
				<rect x="242.093" y="377.793" style="fill:url(#SVGID_00000018944488218777359040000014744160011541911482_);" width="509.382" height="337.016"/>
			<path style="fill:#6D6E71;" d="M496.784,347.435c-2.983,0-5.403,2.42-5.403,5.404c0,2.983,2.42,5.402,5.403,5.402
				c2.983,0,5.403-2.418,5.403-5.402C502.187,349.854,499.768,347.435,496.784,347.435z"/>
		</g>
		<g>
			<path style="fill:#222327;" d="M788.255,327.887H663.378l-16.367,49.906h104.465v309.231v27.784H536.484l-16.366,49.906h268.137
				c7.237,0,13.127-5.89,13.127-13.126V341.014C801.381,333.776,795.491,327.887,788.255,327.887z"/>
		</g>
	</g>
	<path style="opacity:0.3;fill:#231F20;" d="M395.777,319.596c-0.253,2.062,1.212,3.941,3.274,4.196l10.269,1.271l-2.194,17.739
		l-10.269-1.27c-2.062-0.255-3.942,1.21-4.197,3.273c-0.254,2.06,1.21,3.939,3.274,4.196l10.269,1.27l-2.194,17.737l-10.269-1.27
		c-2.063-0.255-3.943,1.211-4.198,3.273c-0.254,2.061,1.211,3.942,3.274,4.197l10.27,1.27l-2.194,17.737l-10.27-1.271
		c-2.063-0.254-3.942,1.212-4.197,3.275c-0.255,2.061,1.211,3.941,3.274,4.195l10.269,1.27l-2.194,17.74l-10.269-1.27
		c-2.062-0.254-3.941,1.211-4.196,3.273c-0.256,2.063,1.21,3.94,3.273,4.196l10.269,1.27l-10.161,82.158l-10.269-1.269
		c-2.062-0.257-3.941,1.21-4.197,3.272c-0.255,2.063,1.21,3.942,3.274,4.197l10.269,1.269l-2.194,17.738l-10.269-1.27
		c-2.063-0.255-3.943,1.211-4.198,3.272c-0.254,2.063,1.211,3.942,3.273,4.198l10.27,1.27l-2.193,17.738l-10.27-1.268
		c-2.063-0.256-3.941,1.209-4.197,3.271c-0.255,2.064,1.211,3.942,3.272,4.197l10.272,1.271l-2.194,17.738l-10.27-1.269
		c-2.064-0.255-3.941,1.21-4.196,3.272c-0.255,2.063,1.21,3.942,3.273,4.197l10.27,1.269l-2.194,17.739l-10.269-1.271
		c-2.064-0.255-3.941,1.211-4.197,3.274c-0.254,2.06,1.21,3.94,3.273,4.196l10.269,1.269l-2.194,17.738l-10.269-1.269
		c-2.063-0.256-3.941,1.209-4.198,3.272c-0.255,2.063,1.211,3.942,3.273,4.197l10.27,1.269l-4.846,39.412l319.296,48.164
		l49.6-409.996h-338.35C395.844,319.287,395.798,319.436,395.777,319.596z"/>
	<g>
		<polygon style="fill:#FFFFFF;" points="416.087,447.447 723.814,475.593 736.358,301.433 428.632,273.286 		"/>
		<g>
			<polygon style="fill:#6F961A;" points="372.81,686.959 689.127,726.079 739.249,327.912 422.931,288.793 			"/>
			<path style="fill:#A3D813;" d="M371.134,688.264l319.295,39.488l50.495-401.144l-319.295-39.487L371.134,688.264z
				 M737.572,329.216l-49.746,395.191l-313.341-38.751l49.746-395.19L737.572,329.216z"/>
		</g>
		<polygon style="fill:#E8E0D4;" points="380.296,679.64 688.058,717.702 738.521,316.555 430.76,278.494 		"/>
		<polygon style="fill:#A3D813;" points="371.134,688.264 690.429,727.751 743.08,311.876 423.785,272.389 		"/>
		<g>
			<g>
				<g>
					<path style="fill:#73990D;" d="M617.749,386.082c-0.089-0.384-0.347-0.707-0.7-0.879c-0.354-0.172-0.767-0.175-1.124-0.008
						l-31.017,14.554c-0.557,0.261-0.854,0.875-0.717,1.474l6.211,26.89c0.094,0.406,0.376,0.743,0.76,0.906
						c0.164,0.069,0.338,0.104,0.511,0.104c0.232,0,0.464-0.063,0.669-0.184l14.072-8.414c0.618-0.37,0.819-1.17,0.45-1.788
						c-0.37-0.618-1.17-0.819-1.788-0.45l-12.536,7.495l-5.571-24.12l28.602-13.421l4.825,20.885l-8.104,4.845
						c-0.618,0.37-0.819,1.17-0.45,1.788c0.369,0.618,1.171,0.819,1.788,0.45l8.919-5.333c0.485-0.29,0.728-0.861,0.602-1.413
						L617.749,386.082z"/>
				</g>
				<g>
					<path style="fill:#73990D;" d="M586.732,400.636c-0.139-0.599-0.695-1.018-1.292-1.01l-34.454,0.57
						c-0.393,0.006-0.763,0.19-1.005,0.5c-0.243,0.31-0.332,0.713-0.243,1.097l5.403,23.382c0.128,0.552,0.597,0.958,1.162,1.006
						l35.261,2.938c0.036,0.003,0.072,0.004,0.108,0.004c0.007,0,0.013,0,0.019,0c0.721,0,1.304-0.584,1.304-1.304
						c0-0.181-0.036-0.353-0.103-0.51L586.732,400.636z M557.467,423.661l-4.826-20.885l31.787-0.526L590,426.372L557.467,423.661z"
						/>
				</g>
				<g>
					<path style="fill:#73990D;" d="M623.166,381.7l-42.351-2.532c-0.246-0.014-0.492,0.041-0.709,0.161l-38.315,21.166
						c-0.524,0.289-0.784,0.898-0.629,1.477c0.152,0.572,0.67,0.968,1.26,0.968c0.007,0,0.014-0.001,0.021-0.001l43.04-0.707
						c0.186-0.003,0.371-0.046,0.539-0.126l37.626-17.927c0.537-0.256,0.833-0.843,0.719-1.426
						C624.253,382.168,623.759,381.736,623.166,381.7z M585.157,399.63l-37.524,0.616l33.404-18.453l36.922,2.207L585.157,399.63z"
						/>
				</g>
				<g>
					<path style="fill:#73990D;" d="M604.247,391.607c-0.14-0.507-0.572-0.88-1.094-0.945l-19.022-2.379
						c-0.711-0.089-1.366,0.417-1.456,1.132c-0.089,0.714,0.418,1.366,1.132,1.456l18.16,2.271l3.458,12.472
						c0.159,0.578,0.684,0.956,1.255,0.956c0.115,0,0.232-0.015,0.35-0.047c0.693-0.192,1.1-0.911,0.907-1.605L604.247,391.607z"/>
				</g>
				<g>
					<path style="fill:#73990D;" d="M607.719,403.808c-0.349,0-0.699,0.041-1.04,0.119c-2.471,0.571-4.019,3.047-3.45,5.522
						c0.486,2.1,2.33,3.567,4.483,3.567c0.348,0,0.697-0.039,1.038-0.119c1.199-0.277,2.218-1.004,2.869-2.046
						c0.651-1.043,0.858-2.277,0.58-3.475C611.714,405.275,609.872,403.808,607.719,403.808z M609.408,409.469
						c-0.282,0.452-0.724,0.767-1.243,0.887c-0.15,0.035-0.302,0.052-0.452,0.052c-0.933,0-1.731-0.636-1.942-1.545
						c-0.246-1.073,0.424-2.148,1.496-2.396c0.149-0.035,0.302-0.052,0.453-0.052c0.932,0,1.729,0.637,1.94,1.548
						C609.78,408.482,609.69,409.018,609.408,409.469z"/>
				</g>
				<g>
					<path style="fill:#73990D;" d="M611.517,409.952c-0.341-0.634-1.131-0.871-1.766-0.531c-0.634,0.341-0.872,1.131-0.531,1.766
						l5.67,10.546l-7.78,1.797l0.47-11.965c0.028-0.72-0.532-1.326-1.252-1.354c-0.674-0.025-1.325,0.532-1.353,1.251l-0.537,13.671
						c-0.016,0.406,0.158,0.796,0.472,1.055c0.235,0.196,0.53,0.299,0.831,0.299c0.098,0,0.196-0.011,0.293-0.033l11.107-2.566
						c0.396-0.091,0.727-0.362,0.894-0.732c0.168-0.37,0.153-0.797-0.039-1.155L611.517,409.952z"/>
				</g>
			</g>
			<g>
				<g>
					<path style="fill:#73990D;" d="M650.686,442.099c-1.055-0.226-2.132-0.34-3.201-0.34c-7.136,0-13.398,5.072-14.893,12.06
						c-1.755,8.218,3.502,16.335,11.721,18.094c1.054,0.225,2.13,0.339,3.199,0.339c7.136,0,13.4-5.072,14.896-12.06
						C664.163,451.972,658.904,443.856,650.686,442.099z M659.858,459.647c-1.24,5.793-6.432,9.997-12.346,9.997
						c-0.887,0-1.779-0.095-2.654-0.282c-6.813-1.458-11.171-8.187-9.716-14.999c1.239-5.793,6.43-9.997,12.343-9.997
						c0.887,0,1.78,0.095,2.656,0.282C656.954,446.105,661.312,452.833,659.858,459.647z"/>
				</g>
				<g>
					<path style="fill:#73990D;" d="M649.652,446.935c-0.712-0.152-1.44-0.229-2.162-0.229c-4.82,0-9.051,3.426-10.06,8.147
						c-1.185,5.552,2.367,11.034,7.918,12.221c0.712,0.152,1.44,0.229,2.163,0.229c4.819,0,9.05-3.426,10.059-8.146
						C658.756,453.604,655.205,448.122,649.652,446.935z M655.019,458.612c-0.753,3.525-3.91,6.084-7.508,6.083
						c-0.54,0-1.084-0.058-1.618-0.172c-4.145-0.887-6.798-4.981-5.912-9.127c0.753-3.525,3.911-6.084,7.509-6.084
						c0.539,0,1.084,0.058,1.617,0.172C653.253,450.371,655.906,454.466,655.019,458.612z"/>
				</g>
				<g>
					<path style="fill:#73990D;" d="M688.652,459.613l-19.165-4.301c-0.336-0.076-0.694-0.014-0.988,0.174
						c-0.293,0.188-0.499,0.485-0.571,0.825l-2.067,9.673c-0.149,0.699,0.291,1.388,0.989,1.545l19.163,4.301
						c0.094,0.021,0.19,0.031,0.285,0.031c0.247,0,0.491-0.07,0.703-0.206c0.293-0.188,0.499-0.484,0.571-0.825l2.069-9.673
						C689.792,460.459,689.35,459.77,688.652,459.613z M685.298,468.998l-16.619-3.729l1.523-7.124l16.62,3.73L685.298,468.998z"/>
				</g>
				<g>
					<path style="fill:#73990D;" d="M668.439,460.147l-6.595-1.41c-0.707-0.151-1.396,0.299-1.547,1.002
						c-0.151,0.704,0.298,1.396,1.002,1.547l6.595,1.41c0.092,0.02,0.184,0.029,0.273,0.029c0.603,0,1.143-0.419,1.273-1.031
						C669.592,460.991,669.143,460.298,668.439,460.147z"/>
				</g>
			</g>
			<g>
				<g>
					<path style="fill:#73990D;" d="M509.175,562.299c-1.953,0.22-3.751,1.198-5.346,2.907c-0.491,0.526-0.463,1.352,0.064,1.843
						c0.527,0.492,1.352,0.462,1.843-0.064c1.159-1.242,2.415-1.947,3.731-2.096c6.1-0.685,14.074,11.242,16.202,30.104
						c0.97,8.598,0.466,16.82-1.418,23.153c-1.749,5.877-4.544,9.45-7.668,9.802c-3.128,0.354-6.645-2.508-9.66-7.847
						c-3.248-5.753-5.571-13.658-6.542-22.255c-1.13-10.016-0.25-19.405,2.413-25.761c0.278-0.664-0.034-1.428-0.698-1.706
						c-0.664-0.277-1.428,0.034-1.706,0.698c-2.872,6.852-3.796,16.463-2.6,27.062c1.008,8.938,3.445,17.192,6.862,23.244
						c3.372,5.973,7.386,9.204,11.389,9.203c0.278,0,0.556-0.015,0.833-0.047c4.277-0.482,7.784-4.619,9.875-11.649
						c1.982-6.66,2.518-15.251,1.51-24.189C526.101,575.567,517.691,561.33,509.175,562.299z"/>
				</g>
				<g>
					<path style="fill:#73990D;" d="M504.172,583.902c-15.719,11.118-24.145,25.326-19.181,32.344
						c1.477,2.09,4.028,3.354,7.378,3.656c0.04,0.004,0.079,0.005,0.119,0.005c0.667,0,1.236-0.509,1.297-1.187
						c0.065-0.717-0.464-1.351-1.181-1.415c-2.602-0.234-4.446-1.097-5.483-2.564c-3.548-5.017,3.062-17.75,18.558-28.71
						c15.496-10.96,29.705-12.95,33.252-7.934c1.816,2.567,1.008,7.031-2.216,12.247c-3.474,5.62-9.278,11.467-16.341,16.463
						c-7.194,5.088-15.042,8.748-21.528,10.042c-0.706,0.141-1.165,0.828-1.023,1.534c0.141,0.706,0.827,1.164,1.533,1.023
						c6.933-1.383,14.932-5.101,22.524-10.47c7.343-5.193,13.399-11.31,17.053-17.221c3.857-6.239,4.612-11.61,2.128-15.123
						C536.094,569.573,519.892,572.785,504.172,583.902z"/>
				</g>
				<g>
					<path style="fill:#73990D;" d="M541.587,599.88c-0.619,0.368-0.823,1.167-0.455,1.787c1.09,1.836,2.189,4.513,1.229,6.842
						c-2.34,5.681-16.636,6.905-34.185-0.325c-7.999-3.296-14.959-7.703-19.598-12.408c-4.306-4.366-6.088-8.538-4.89-11.445
						c1.198-2.907,5.401-4.612,11.533-4.678c6.611-0.073,14.652,1.706,22.652,5.003c7.992,3.293,14.949,7.695,19.588,12.396
						c0.505,0.513,1.331,0.518,1.843,0.012c0.513-0.506,0.518-1.331,0.012-1.844c-4.879-4.944-12.142-9.552-20.45-12.976
						c-8.317-3.427-16.706-5.272-23.673-5.199c-7.334,0.079-12.276,2.313-13.916,6.292c-1.639,3.979,0.294,9.046,5.444,14.269
						c4.879,4.948,12.146,9.562,20.462,12.988c8.444,3.479,16.597,5.2,23.185,5.2c7.302,0,12.682-2.115,14.403-6.293
						c1.085-2.631,0.602-5.801-1.398-9.167C543.006,599.717,542.208,599.512,541.587,599.88z"/>
				</g>
				<g>
					<path style="fill:#73990D;" d="M512.194,589.054c-1.968,0.222-3.731,1.197-4.965,2.745c-1.235,1.548-1.792,3.485-1.57,5.453
						c0.423,3.752,3.587,6.582,7.359,6.582c0.001,0,0.001,0,0.001,0c0.277,0,0.556-0.016,0.838-0.047
						c1.968-0.222,3.731-1.197,4.966-2.746c1.234-1.548,1.792-3.485,1.57-5.453C519.937,591.56,516.304,588.587,512.194,589.054z
						 M516.783,599.415c-0.8,1.004-1.943,1.636-3.219,1.78c-0.184,0.021-0.366,0.03-0.546,0.03c-2.444,0-4.494-1.834-4.769-4.268
						c-0.144-1.275,0.218-2.53,1.018-3.534c0.8-1.003,1.943-1.635,3.219-1.779c0.184-0.02,0.366-0.031,0.547-0.031
						c2.443,0,4.493,1.834,4.768,4.267C517.945,597.156,517.583,598.411,516.783,599.415z"/>
				</g>
				<g>
					<path style="fill:#73990D;" d="M502.86,564.662c-2.325,0.263-4.004,2.369-3.741,4.694c0.242,2.149,2.054,3.77,4.214,3.77
						c0.158,0,0.319-0.009,0.479-0.027c1.127-0.127,2.137-0.685,2.844-1.571c0.707-0.887,1.027-1.996,0.9-3.123
						C507.296,566.099,505.233,564.393,502.86,564.662z M504.618,569.901c-0.273,0.342-0.663,0.558-1.098,0.607
						c-0.906,0.102-1.71-0.553-1.811-1.443c-0.101-0.897,0.546-1.71,1.443-1.811c0.063-0.007,0.125-0.011,0.188-0.011
						c0.833,0,1.531,0.625,1.625,1.455C505.014,569.131,504.891,569.559,504.618,569.901z"/>
				</g>
				<g>
					<path style="fill:#73990D;" d="M495.25,614.246c-1.127,0.127-2.137,0.685-2.844,1.572c-0.707,0.887-1.027,1.996-0.899,3.123
						c0.243,2.148,2.055,3.769,4.216,3.769c0.158,0,0.318-0.009,0.479-0.027c1.127-0.127,2.137-0.686,2.843-1.573
						c0.707-0.887,1.026-1.996,0.898-3.122C499.683,615.683,497.608,613.979,495.25,614.246z M497.005,619.486
						c-0.272,0.342-0.662,0.558-1.096,0.606c-0.918,0.103-1.711-0.554-1.812-1.444c-0.049-0.435,0.074-0.862,0.347-1.204
						c0.273-0.343,0.663-0.558,1.097-0.607c0.063-0.007,0.125-0.01,0.187-0.01c0.832,0,1.53,0.625,1.624,1.455
						C497.401,618.716,497.278,619.144,497.005,619.486z"/>
				</g>
				<g>
					<path style="fill:#73990D;" d="M539.89,594.183c-2.326,0.263-4.005,2.368-3.742,4.694c0.243,2.148,2.054,3.769,4.214,3.769
						c0.159,0,0.319-0.009,0.479-0.027c2.325-0.262,4.003-2.368,3.741-4.693C544.323,595.618,542.241,593.916,539.89,594.183z
						 M540.55,600.027c-0.906,0.103-1.71-0.553-1.811-1.443c-0.101-0.896,0.546-1.709,1.443-1.811
						c0.063-0.007,0.126-0.01,0.188-0.01c0.831,0,1.528,0.625,1.622,1.454C542.093,599.114,541.446,599.926,540.55,600.027z"/>
				</g>
			</g>
			<g>
				<g>
					<path style="fill:#73990D;" d="M646.696,521.985c-0.179-0.698-0.893-1.119-1.587-0.938c-0.697,0.179-1.117,0.889-0.938,1.586
						c0.097,0.377,0.198,0.753,0.303,1.125c-9.485-4.643-10.806-17.916-10.817-18.041c-0.005-0.064,0.015-0.123,0.052-0.162
						c0.042-0.043,0.102-0.063,0.156-0.065l8.09,0.218c0.021,0.597,0.046,1.201,0.077,1.81c0.036,0.719,0.649,1.27,1.368,1.236
						c0.719-0.036,1.273-0.648,1.235-1.368c-0.051-1.008-0.088-2.001-0.107-2.973c-0.014-0.696-0.572-1.259-1.268-1.277
						l-9.325-0.252c-0.791-0.023-1.567,0.298-2.118,0.878c-0.543,0.573-0.82,1.357-0.758,2.172
						c0.063,0.707,1.73,17.381,15.101,21.259c0.12,0.035,0.242,0.052,0.363,0.052c0.352,0,0.695-0.143,0.945-0.406
						c0.335-0.353,0.446-0.864,0.286-1.324C647.364,524.387,647.007,523.2,646.696,521.985z"/>
				</g>
				<g>
					<path style="fill:#73990D;" d="M689.022,504.506l-9.476-0.257c-0.012-0.001-0.023-0.001-0.036-0.001
						c-0.674,0-1.24,0.517-1.298,1.193c-0.083,0.967-0.185,1.955-0.305,2.958c-0.086,0.715,0.424,1.364,1.139,1.45
						c0.713,0.086,1.364-0.424,1.449-1.139c0.074-0.613,0.141-1.22,0.201-1.821l8.255,0.224c0.054,0.001,0.108,0.028,0.15,0.078
						c0.034,0.04,0.051,0.096,0.043,0.15c-0.021,0.148-2.082,13.849-12.374,17.681c0.133-0.364,0.265-0.733,0.393-1.107
						c0.234-0.681-0.128-1.422-0.809-1.657c-0.682-0.234-1.423,0.128-1.656,0.809c-0.413,1.201-0.852,2.345-1.307,3.401
						c-0.19,0.443-0.12,0.956,0.183,1.332c0.251,0.31,0.626,0.486,1.016,0.486c0.082,0,0.165-0.008,0.248-0.024
						c5.875-1.14,10.66-5.056,13.836-11.324c2.419-4.774,3.05-9.207,3.054-9.24c0.11-0.793-0.126-1.598-0.642-2.198
						C690.571,504.89,689.819,504.528,689.022,504.506z"/>
				</g>
				<g>
					<path style="fill:#73990D;" d="M661.956,537.761c-0.483,0.057-0.884,0.083-1.26,0.083l-0.203-0.003
						c-1.168-0.032-2.293-0.235-3.343-0.604c-0.392-0.139-0.828-0.081-1.172,0.155c-0.343,0.236-0.553,0.622-0.564,1.039
						l-0.332,12.329c-0.02,0.72,0.548,1.319,1.268,1.338l5.401,0.146c0.012,0,0.023,0.001,0.035,0.001
						c0.333,0,0.654-0.127,0.896-0.357c0.251-0.238,0.397-0.566,0.406-0.911l0.322-11.886c0.011-0.378-0.144-0.742-0.423-0.998
						C662.708,537.838,662.331,537.717,661.956,537.761z M660.519,549.602l-2.795-0.076l0.252-9.361
						c0.795,0.165,1.612,0.26,2.446,0.282l0.274,0.004c0.023,0,0.047,0,0.07,0L660.519,549.602z"/>
				</g>
				<g>
					<g>
						<path style="fill:#73990D;" d="M679.802,499.973l-36.543-0.991c-0.344-0.013-0.683,0.12-0.935,0.359
							c-0.251,0.239-0.396,0.569-0.404,0.916c-0.029,1.361-0.029,2.777,0,4.208c0.021,0.998,0.058,2.018,0.11,3.054
							c0.285,5.611,1.005,10.696,2.14,15.115c0.329,1.283,0.706,2.539,1.119,3.734c2.474,7.15,6.174,11.634,10.996,13.328
							c1.306,0.46,2.697,0.713,4.137,0.752l0.274,0.004c0.481,0,0.978-0.032,1.567-0.102c5.587-0.672,10.137-4.996,13.524-12.853
							c0.479-1.115,0.941-2.32,1.377-3.586c1.52-4.463,2.672-9.72,3.33-15.201c0.124-1.033,0.229-2.05,0.315-3.047
							c0.128-1.504,0.216-2.966,0.26-4.345c0.012-0.347-0.116-0.684-0.354-0.936C680.478,500.129,680.149,499.982,679.802,499.973z
							 M678.212,505.442c-0.083,0.967-0.185,1.955-0.305,2.957c-0.638,5.304-1.748,10.377-3.209,14.668
							c-0.413,1.202-0.852,2.345-1.306,3.399c-2.993,6.942-6.842,10.742-11.437,11.295c-0.483,0.057-0.884,0.083-1.26,0.083
							l-0.203-0.003c-1.168-0.032-2.293-0.235-3.343-0.605c-4.035-1.417-7.196-5.361-9.397-11.721
							c-0.39-1.128-0.746-2.315-1.058-3.529c-1.091-4.25-1.785-9.162-2.062-14.599c-0.051-1.008-0.088-2.001-0.107-2.974
							c-0.019-0.94-0.025-1.874-0.018-2.789l33.9,0.919C678.363,503.481,678.296,504.452,678.212,505.442z"/>
					</g>
				</g>
				<g>
					<g>
						<path style="fill:#73990D;" d="M662.253,549.649l-5.833-0.158l-1.313-0.033c-3.788,0-6.956,3.172-7.062,7.07
							c-0.019,0.72,0.548,1.319,1.268,1.339l18.451,0.504c0.012,0,0.023,0,0.036,0c0.703,0,1.283-0.56,1.302-1.268
							c0.052-1.854-0.642-3.721-1.902-5.122C665.893,550.529,664.137,549.7,662.253,549.649z M650.877,555.301
							c0.598-1.849,2.311-3.236,4.231-3.236l7.075,0.19c1.161,0.032,2.255,0.554,3.079,1.471c0.517,0.573,0.886,1.266,1.08,1.998
							L650.877,555.301z"/>
					</g>
				</g>
				<g>
					<path style="fill:#73990D;" d="M669.997,555.825l-22.775-0.623c-0.012,0-0.023,0-0.036,0c-0.703,0-1.283,0.561-1.302,1.268
						l-0.104,3.8c-0.01,0.346,0.118,0.681,0.356,0.932c0.237,0.251,0.566,0.398,0.911,0.406l22.776,0.614c0.012,0,0.023,0,0.035,0
						c0.333,0,0.654-0.127,0.896-0.357c0.251-0.237,0.397-0.565,0.407-0.911l0.102-3.791
						C671.283,556.444,670.715,555.845,669.997,555.825z M668.59,559.581l-20.169-0.544l0.032-1.193l20.169,0.552L668.59,559.581z"
						/>
				</g>
				<g>
					<path style="fill:#73990D;" d="M671.312,513.232l-6.172-0.166l-2.624-6.173c-0.2-0.47-0.655-0.78-1.165-0.794
						c-0.502-0.016-0.982,0.272-1.206,0.73l-2.95,6.022l-6.17-0.167c-0.508-0.013-0.996,0.281-1.216,0.75
						c-0.22,0.47-0.141,1.025,0.202,1.414l4.496,5.106l-1.259,6.317c-0.098,0.487,0.091,0.986,0.484,1.289
						c0.392,0.302,0.924,0.355,1.369,0.136l5.741-2.824l5.581,3.13c0.198,0.111,0.418,0.167,0.638,0.167
						c0.258,0,0.516-0.077,0.737-0.229c0.409-0.28,0.624-0.769,0.553-1.26l-0.914-6.375l4.77-4.857
						c0.363-0.37,0.473-0.92,0.278-1.401C672.292,513.566,671.831,513.246,671.312,513.232z M665.125,518.939
						c-0.284,0.29-0.418,0.696-0.359,1.098l0.631,4.4l-3.876-2.174c-0.197-0.11-0.418-0.166-0.638-0.166
						c-0.196,0-0.393,0.044-0.575,0.134l-3.986,1.961l0.868-4.359c0.08-0.399-0.031-0.812-0.3-1.117l-2.944-3.344l4.016,0.108
						c0.513,0.01,0.981-0.271,1.206-0.729l2.064-4.214l1.836,4.319c0.2,0.47,0.655,0.779,1.165,0.793l4.017,0.108L665.125,518.939z"
						/>
				</g>
			</g>
			<g>
				<g>
					<path style="fill:#73990D;" d="M576.735,525.788c-0.318-0.033-7.918-0.773-19.777,2.746
						c-7.792,2.314-13.459,6.225-15.959,8.174l-15.336-37.236c0.761-0.742,2.146-2.049,3.606-3.208
						c0.564-0.447,0.658-1.268,0.21-1.832c-0.448-0.564-1.268-0.659-1.832-0.21c-2.307,1.831-4.37,3.941-4.456,4.03
						c-0.363,0.373-0.47,0.926-0.272,1.407l16.342,39.678c0.162,0.393,0.506,0.682,0.92,0.775c0.095,0.021,0.191,0.031,0.285,0.031
						c0.321,0,0.636-0.119,0.878-0.34c0.064-0.058,6.495-5.842,16.354-8.771c11.313-3.357,18.692-2.659,18.765-2.651
						c0.72,0.071,1.356-0.448,1.43-1.163C577.969,526.503,577.45,525.863,576.735,525.788z"/>
				</g>
				<g>
					<path style="fill:#73990D;" d="M563.292,487.505c-0.108-0.291-0.317-0.534-0.589-0.686c-0.219-0.122-5.447-2.976-13.436-2.976
						c-2.308,0-4.641,0.243-6.933,0.722c-10.036,2.099-15.303,6.941-15.523,7.146c-0.392,0.366-0.519,0.935-0.321,1.434
						l15.467,38.935c0.152,0.384,0.477,0.672,0.875,0.778c0.111,0.03,0.224,0.044,0.337,0.044c0.291,0,0.577-0.097,0.81-0.282
						c0.051-0.041,5.202-4.064,13.978-5.755c2.746-0.529,5.38-0.798,7.829-0.798c6.804,0,10.06,2.082,10.085,2.099
						c0.469,0.316,1.089,0.294,1.534-0.057c0.445-0.35,0.613-0.947,0.416-1.479L563.292,487.505z M565.786,523.46
						c-2.614,0-5.414,0.284-8.323,0.846c-6.747,1.3-11.474,3.873-13.688,5.288l-14.511-36.529c1.645-1.273,6.275-4.413,13.604-5.946
						c2.117-0.442,4.27-0.667,6.399-0.667c6.066,0,10.445,1.823,11.76,2.443l13.286,35.776
						C572.407,524.056,569.581,523.46,565.786,523.46z"/>
				</g>
				<g>
					<g>
						<path style="fill:#73990D;" d="M563.617,501.951c-2.027-1.011-7.591-3.187-15.463-1.544c-2.012,0.422-3.965,1.006-5.804,1.736
							c-1.818,0.722-3.511,1.578-5.033,2.546c-0.607,0.386-0.787,1.192-0.4,1.799c0.249,0.391,0.67,0.604,1.102,0.604
							c0.239,0,0.481-0.066,0.698-0.204c1.383-0.88,2.93-1.662,4.595-2.323c1.702-0.675,3.511-1.216,5.377-1.607
							c7.069-1.476,11.981,0.434,13.765,1.325c0.644,0.322,1.428,0.06,1.749-0.585C564.523,503.055,564.261,502.272,563.617,501.951
							z"/>
					</g>
				</g>
				<g>
					<g>
						<path style="fill:#73990D;" d="M560.16,493.36c-2.027-1.012-7.59-3.188-15.464-1.542c-2.018,0.422-3.97,1.006-5.805,1.734
							c-1.824,0.726-3.518,1.582-5.034,2.546c-0.607,0.387-0.787,1.192-0.4,1.8c0.249,0.391,0.671,0.604,1.102,0.604
							c0.239,0,0.482-0.066,0.698-0.204c0.947-0.603,2.514-1.495,4.597-2.323c1.696-0.673,3.505-1.213,5.376-1.605
							c7.073-1.477,11.984,0.433,13.766,1.323c0.643,0.321,1.427,0.06,1.749-0.584C561.065,494.465,560.804,493.682,560.16,493.36z"
							/>
					</g>
				</g>
				<g>
					<g>
						<path style="fill:#73990D;" d="M569.63,517.963c-2.022-1.013-7.58-3.192-15.463-1.544c-2.007,0.419-3.961,1.003-5.807,1.734
							c-1.819,0.723-3.512,1.58-5.032,2.547c-0.607,0.387-0.787,1.192-0.4,1.8c0.249,0.391,0.67,0.604,1.102,0.604
							c0.239,0,0.481-0.066,0.698-0.204c0.95-0.604,2.519-1.499,4.594-2.323c1.707-0.677,3.517-1.217,5.378-1.606
							c7.08-1.481,11.983,0.433,13.762,1.324c0.644,0.322,1.428,0.062,1.75-0.582C570.535,519.068,570.274,518.285,569.63,517.963z"
							/>
					</g>
				</g>
				<g>
					<g>
						<path style="fill:#73990D;" d="M566.583,509.904c-2.028-1.011-7.594-3.187-15.463-1.542c-2.013,0.421-3.966,1.005-5.806,1.735
							c-1.829,0.727-3.523,1.583-5.033,2.547c-0.607,0.387-0.785,1.193-0.398,1.8c0.249,0.39,0.67,0.603,1.101,0.603
							c0.24,0,0.482-0.066,0.7-0.205c0.943-0.602,2.505-1.493,4.593-2.322c1.701-0.675,3.51-1.215,5.377-1.607
							c7.068-1.477,11.983,0.433,13.766,1.323c0.647,0.321,1.427,0.059,1.749-0.585
							C567.489,511.008,567.227,510.225,566.583,509.904z"/>
					</g>
				</g>
				<g>
					<path style="fill:#73990D;" d="M605.353,471.684c-0.243-0.678-0.99-1.028-1.667-0.786l-5.25,1.888
						c-0.678,0.244-1.029,0.99-0.785,1.668c0.244,0.678,0.992,1.029,1.668,0.785l4.022-1.446l14.155,39.357l-39.269,17.221
						l-41.11,12.871l-15.446-38.879l3.972-1.577c0.669-0.266,0.996-1.024,0.73-1.693c-0.266-0.669-1.024-0.996-1.693-0.73
						l-5.183,2.058c-0.321,0.127-0.579,0.377-0.716,0.695c-0.137,0.318-0.142,0.677-0.015,0.998l16.374,41.215
						c0.202,0.508,0.69,0.823,1.211,0.823c0.129,0,0.26-0.02,0.39-0.06l42.333-13.253c0.046-0.014,0.09-0.031,0.134-0.05
						l40.45-17.738c0.628-0.275,0.935-0.99,0.703-1.635L605.353,471.684z"/>
				</g>
				<g>
					<path style="fill:#73990D;" d="M599.062,470.412c-0.208-0.603-0.821-0.966-1.45-0.86c-0.026,0.005-2.687,0.451-5.462,0.596
						c-0.72,0.038-1.271,0.651-1.234,1.37c0.037,0.719,0.645,1.272,1.369,1.234c1.836-0.095,3.586-0.31,4.667-0.462l13.311,38.542
						c-3.163,0.193-10,1.014-17.373,4.438c-11.214,5.211-16.423,10.798-16.64,11.033c-0.486,0.529-0.452,1.353,0.077,1.84
						c0.25,0.231,0.566,0.345,0.883,0.345c0.352,0,0.701-0.141,0.959-0.419c0.05-0.054,5.119-5.462,15.819-10.435
						c9.332-4.333,17.964-4.254,18.064-4.252c0.424,0.001,0.827-0.195,1.076-0.539c0.249-0.344,0.315-0.789,0.177-1.19
						L599.062,470.412z"/>
				</g>
				<g>
					<path style="fill:#73990D;" d="M592.302,468.574c-0.181-0.503-0.655-0.845-1.19-0.862l-0.15-0.002
						c-1.264,0-7.981,0.237-16.214,4.92c-10.391,5.913-13.759,14.501-13.897,14.864c-0.115,0.301-0.114,0.633,0.002,0.934
						l15.142,39.225c0.194,0.504,0.68,0.83,1.216,0.83c0.022,0,0.045,0,0.067-0.002c0.562-0.028,1.044-0.419,1.192-0.962
						c0.018-0.064,1.896-6.547,12.568-12.842c7.658-4.516,14.224-4.934,14.287-4.938c0.412-0.022,0.789-0.237,1.017-0.581
						c0.229-0.343,0.28-0.774,0.141-1.162L592.302,468.574z M589.714,512.431c-7.209,4.253-10.731,8.625-12.39,11.428
						l-13.847-35.871c0.811-1.753,4.305-8.393,12.56-13.09c6.49-3.692,11.998-4.41,14.133-4.547l13.304,36.986
						C600.878,507.741,595.631,508.942,589.714,512.431z"/>
				</g>
				<g>
					<g>
						<path style="fill:#73990D;" d="M591.83,484.393c-1.22,0.192-3.156,0.595-5.457,1.422c-1.862,0.67-3.713,1.526-5.5,2.543
							c-6.992,3.979-9.722,9.292-10.571,11.393c-0.27,0.668,0.053,1.427,0.721,1.697c0.16,0.064,0.325,0.095,0.488,0.095
							c0.516,0,1.004-0.308,1.209-0.815c0.746-1.847,3.162-6.53,9.442-10.104c1.658-0.943,3.372-1.736,5.094-2.355
							c2.107-0.759,3.872-1.126,4.98-1.301c0.711-0.112,1.196-0.779,1.085-1.49C593.208,484.767,592.547,484.282,591.83,484.393z"/>
					</g>
				</g>
				<g>
					<g>
						<path style="fill:#73990D;" d="M588.735,475.666c-1.778,0.28-3.614,0.759-5.457,1.422c-1.858,0.669-3.709,1.524-5.499,2.542
							c-6.984,3.976-9.719,9.292-10.569,11.392c-0.271,0.668,0.051,1.428,0.719,1.698c0.16,0.065,0.326,0.096,0.489,0.096
							c0.515,0,1.003-0.308,1.208-0.815c0.749-1.849,3.169-6.534,9.442-10.105c1.66-0.944,3.374-1.737,5.093-2.355
							c2.103-0.758,3.869-1.125,4.981-1.3c0.711-0.112,1.196-0.78,1.085-1.491C590.114,476.04,589.456,475.555,588.735,475.666z"/>
					</g>
				</g>
				<g>
					<g>
						<path style="fill:#73990D;" d="M597.921,500.374c-1.78,0.282-3.616,0.761-5.459,1.424c-1.861,0.67-3.712,1.524-5.501,2.541
							c-6.989,3.98-9.718,9.293-10.567,11.393c-0.269,0.668,0.053,1.427,0.721,1.697c0.16,0.064,0.325,0.095,0.488,0.095
							c0.516,0,1.004-0.308,1.209-0.815c0.746-1.847,3.161-6.529,9.438-10.103c1.659-0.942,3.373-1.734,5.095-2.354
							c1.688-0.608,3.365-1.046,4.984-1.302c0.711-0.113,1.196-0.781,1.084-1.492C599.3,500.746,598.633,500.263,597.921,500.374z"
							/>
					</g>
				</g>
				<g>
					<g>
						<path style="fill:#73990D;" d="M594.873,492.318c-1.778,0.281-3.614,0.76-5.458,1.423c-1.86,0.669-3.711,1.524-5.499,2.542
							c-6.988,3.978-9.72,9.292-10.569,11.393c-0.271,0.667,0.052,1.427,0.719,1.697c0.16,0.065,0.326,0.096,0.489,0.096
							c0.515,0,1.003-0.308,1.208-0.815c0.748-1.848,3.165-6.532,9.442-10.105c1.658-0.943,3.372-1.735,5.093-2.353
							c1.689-0.608,3.366-1.046,4.983-1.302c0.711-0.113,1.196-0.78,1.084-1.492C596.252,492.69,595.581,492.207,594.873,492.318z"
							/>
					</g>
				</g>
			</g>
			<g>
				<g>
					<path style="fill:#73990D;" d="M478.056,508.585c-3.553-2.638-7.765-4.032-12.179-4.032c-3.639,0-7.187,0.954-10.317,2.767
						l-12.578-9.338c0.492-1.936-0.209-4.014-1.871-5.245c-0.872-0.649-1.907-0.992-2.992-0.992c-1.583,0-3.091,0.759-4.034,2.028
						l-7.386,9.952c-0.801,1.078-1.134,2.402-0.937,3.73c0.197,1.326,0.898,2.496,1.975,3.295c1.61,1.198,3.885,1.28,5.565,0.27
						l12.579,9.338c-1.854,7.9,1.18,16.311,7.723,21.169c3.563,2.645,7.786,4.043,12.21,4.043c6.471,0,12.634-3.099,16.485-8.288
						c3.266-4.399,4.624-9.807,3.823-15.227S482.456,511.851,478.056,508.585z M480.205,535.727
						c-3.412,4.598-8.657,7.234-14.391,7.234c-3.861,0-7.546-1.221-10.656-3.529c-5.922-4.398-8.55-12.132-6.541-19.246
						c0.147-0.521-0.043-1.079-0.478-1.401l-14.066-10.441c-0.232-0.172-0.505-0.257-0.776-0.257c-0.327,0-0.652,0.122-0.903,0.363
						c-0.824,0.792-2.177,0.892-3.102,0.205c-0.518-0.385-0.856-0.948-0.951-1.585c-0.094-0.638,0.066-1.273,0.451-1.792
						l7.386-9.953c0.769-1.036,2.332-1.274,3.378-0.497c0.945,0.7,1.24,1.972,0.704,3.025c-0.29,0.567-0.127,1.26,0.384,1.639
						l14.067,10.442c0.434,0.323,1.024,0.343,1.479,0.052c2.894-1.85,6.244-2.828,9.688-2.828c3.85,0,7.525,1.217,10.625,3.518
						c3.84,2.851,6.34,7.026,7.04,11.758C484.242,527.167,483.057,531.887,480.205,535.727z"/>
				</g>
				<g>
					<path style="fill:#73990D;" d="M439.98,497.971l-7.727,10.878c-0.417,0.587-0.279,1.401,0.308,1.818
						c0.229,0.163,0.493,0.241,0.754,0.241c0.408,0,0.81-0.191,1.064-0.549l7.727-10.878c0.417-0.587,0.279-1.401-0.308-1.818
						C441.211,497.246,440.397,497.383,439.98,497.971z"/>
				</g>
				<g>
					<path style="fill:#73990D;" d="M474.359,507.826c0.221-0.686-0.155-1.42-0.841-1.641c-0.683-0.22-1.42,0.155-1.641,0.841
						c-0.853,2.644-1.042,4.755-0.569,6.997c-1.154,0.051-2.283,0.443-3.236,1.156c-0.958,0.716-1.654,1.689-2.02,2.778
						c-1.869-0.615-3.97-0.262-5.468,0.376c-3.085,1.313-4.393,4.529-3.762,9.143c-1.592,0.064-3.239,0.646-4.595,1.668
						c-1.998,1.507-3.146,3.739-3.23,6.286c-0.024,0.719,0.54,1.323,1.259,1.346c0.015,0.001,0.029,0.001,0.044,0.001
						c0.7,0,1.278-0.556,1.302-1.26c0.059-1.744,0.838-3.267,2.195-4.291c1.296-0.977,2.943-1.372,4.294-1.034
						c0.441,0.109,0.903-0.015,1.227-0.331c0.324-0.315,0.461-0.776,0.363-1.217c-0.658-2.956-0.858-6.727,1.925-7.912
						c1.399-0.595,3.436-0.772,4.607,0.249c0.395,0.344,0.958,0.419,1.429,0.189c0.471-0.231,0.758-0.721,0.729-1.244
						c-0.059-1.047,0.401-2.016,1.261-2.657c0.886-0.662,1.996-0.825,3.046-0.449c0.475,0.17,1.006,0.051,1.363-0.308
						c0.356-0.357,0.474-0.889,0.302-1.364C473.44,512.651,473.444,510.667,474.359,507.826z"/>
				</g>
			</g>
			<g>
				<g>
					<path style="fill:#73990D;" d="M599.784,579.554c-1.801,0-3.599,0.448-5.2,1.295c-2.63,1.391-4.562,3.722-5.438,6.565
						c-0.875,2.843-0.592,5.858,0.8,8.488c1.935,3.66,5.71,5.934,9.854,5.934c0,0,0,0,0.001,0c1.799,0,3.597-0.447,5.197-1.293
						c5.431-2.872,7.513-9.625,4.642-15.057C607.702,581.827,603.925,579.554,599.784,579.554z M603.78,598.237
						c-1.227,0.648-2.602,0.991-3.979,0.991c-0.001,0-0.001,0-0.001,0c-3.175,0-6.068-1.741-7.55-4.544
						c-1.065-2.015-1.283-4.325-0.612-6.503c0.671-2.178,2.149-3.963,4.164-5.028c1.245-0.659,2.584-0.993,3.981-0.993
						c3.174,0,6.067,1.742,7.552,4.545C609.535,590.865,607.939,596.038,603.78,598.237z"/>
				</g>
				<g>
					<path style="fill:#73990D;" d="M599.775,570.945c-3.189,0-6.376,0.793-9.214,2.293c-9.625,5.09-13.314,17.062-8.225,26.687
						c3.433,6.488,10.127,10.518,17.473,10.519c0,0,0,0,0.001,0c3.189,0,6.375-0.794,9.213-2.294
						c9.624-5.089,13.314-17.061,8.226-26.688C613.816,574.976,607.121,570.945,599.775,570.945z M607.803,605.846
						c-2.464,1.303-5.228,1.992-7.994,1.992h-0.001c-6.377,0-12.189-3.499-15.168-9.13c-4.417-8.354-1.214-18.745,7.14-23.163
						c2.464-1.303,5.229-1.991,7.995-1.991c6.377,0,12.188,3.498,15.168,9.129C619.359,591.038,616.157,601.429,607.803,605.846z"/>
				</g>
				<g>
					<path style="fill:#73990D;" d="M636.25,607.612l-17.891-12.793c-0.587-0.418-1.399-0.284-1.819,0.302
						c-0.419,0.585-0.283,1.4,0.302,1.819l15.771,11.276l-6.251,1.979c-0.532,0.169-0.898,0.658-0.91,1.216l-0.116,5.617
						l-13.607-12.069c-0.536-0.477-1.361-0.43-1.841,0.11c-0.478,0.539-0.428,1.362,0.11,1.84l15.717,13.941
						c0.243,0.216,0.553,0.328,0.865,0.328c0.177,0,0.355-0.036,0.522-0.109c0.466-0.204,0.771-0.66,0.781-1.168l0.155-7.503
						l7.846-2.483c0.471-0.149,0.816-0.551,0.894-1.039C636.857,608.39,636.652,607.9,636.25,607.612z"/>
				</g>
				<g>
					<path style="fill:#73990D;" d="M606.356,608.803c-0.108-0.712-0.767-1.198-1.486-1.092c-0.712,0.108-1.2,0.774-1.092,1.485
						l2.55,16.676l-4.941-3.532c-0.432-0.31-1.012-0.325-1.461-0.037l-6.132,3.927l1.196-17.615c0.049-0.719-0.494-1.341-1.213-1.39
						c-0.715-0.048-1.34,0.495-1.389,1.213l-1.372,20.196c-0.033,0.491,0.213,0.96,0.637,1.21c0.423,0.251,0.951,0.242,1.367-0.024
						l7.568-4.846l6.737,4.816c0.226,0.162,0.491,0.243,0.758,0.243c0.236,0,0.473-0.064,0.683-0.193
						c0.446-0.274,0.686-0.79,0.607-1.308L606.356,608.803z"/>
				</g>
			</g>
			<g>
				<g>
					<g>
						<path style="fill:#73990D;" d="M484.687,400.103c-2.95,0-5.884,0.459-8.72,1.365c-15.043,4.803-23.374,20.95-18.57,35.995
							c3.808,11.922,14.769,19.933,27.274,19.934c0,0,0.001,0,0.002,0c2.949,0,5.882-0.459,8.717-1.365
							c7.288-2.328,13.233-7.354,16.741-14.152c3.507-6.798,4.156-14.556,1.829-21.843
							C508.153,408.114,497.193,400.103,484.687,400.103z M507.814,440.685c-3.188,6.18-8.592,10.748-15.216,12.863
							c-2.579,0.824-5.245,1.241-7.924,1.241c0,0-0.002,0-0.002,0c-11.366-0.001-21.329-7.282-24.791-18.119
							c-4.366-13.675,3.206-28.353,16.879-32.719c2.58-0.824,5.247-1.241,7.927-1.241c11.368,0,21.33,7.282,24.79,18.12
							C511.591,427.455,511.001,434.506,507.814,440.685z"/>
					</g>
					<g>
						<path style="fill:#73990D;" d="M478.337,401.104c-0.815,0-1.613,0.122-2.371,0.365c-3.818,1.219-6.385,5.301-7.228,11.493
							c-0.797,5.854,0.02,13.009,2.299,20.145c4.309,13.495,12.712,23.29,19.981,23.29h0c0.815,0,1.614-0.122,2.372-0.365
							c3.819-1.219,6.386-5.301,7.229-11.494c0.797-5.854-0.019-13.009-2.299-20.146
							C494.01,410.898,485.605,401.104,478.337,401.104z M498.036,444.188c-0.69,5.066-2.672,8.478-5.439,9.361
							c-0.502,0.16-1.032,0.241-1.578,0.241h0c-6.065,0-13.588-9.233-17.498-21.476c-2.163-6.775-2.944-13.522-2.199-19
							c0.689-5.066,2.671-8.478,5.438-9.361c0.501-0.16,1.032-0.241,1.578-0.241c6.065,0,13.589,9.233,17.5,21.476
							C498.001,431.961,498.781,438.71,498.036,444.188z"/>
					</g>
					<g>
						<path style="fill:#73990D;" d="M477.702,402.624c-0.219-0.686-0.952-1.064-1.638-0.845c-0.686,0.219-1.064,0.953-0.845,1.638
							l16.435,51.46c0.177,0.554,0.69,0.908,1.241,0.908c0.131,0,0.265-0.02,0.397-0.062c0.686-0.219,1.064-0.953,0.845-1.639
							L477.702,402.624z"/>
					</g>
					<g>
						<path style="fill:#73990D;" d="M510.104,437.224c-6.085-1.293-14.137-0.578-22.092,1.962
							c-8.097,2.586-15.145,6.75-19.338,11.423c-0.48,0.536-0.435,1.36,0.1,1.841c0.249,0.223,0.56,0.333,0.87,0.333
							c0.357,0,0.713-0.147,0.971-0.433c3.891-4.339,10.521-8.232,18.189-10.681c7.534-2.406,15.099-3.098,20.757-1.895
							c0.701,0.149,1.396-0.3,1.546-1.004C511.257,438.065,510.808,437.373,510.104,437.224z"/>
					</g>
					<g>
						<path style="fill:#73990D;" d="M498.581,405.39c-3.914,4.259-10.48,8.081-18.014,10.487
							c-7.668,2.449-15.329,3.121-21.014,1.84c-0.701-0.159-1.399,0.283-1.558,0.985c-0.158,0.703,0.283,1.4,0.986,1.558
							c2.068,0.466,4.369,0.695,6.821,0.695c4.807,0,10.196-0.882,15.559-2.595c7.953-2.539,14.929-6.624,19.141-11.206
							c0.487-0.53,0.452-1.355-0.078-1.842C499.893,404.824,499.068,404.86,498.581,405.39z"/>
					</g>
					<g>
						<path style="fill:#73990D;" d="M510.014,419.291l-51.462,16.436c-0.686,0.219-1.065,0.953-0.845,1.639
							c0.177,0.554,0.689,0.908,1.241,0.908c0.131,0,0.265-0.021,0.397-0.063l51.462-16.436c0.686-0.219,1.064-0.953,0.845-1.638
							C511.433,419.451,510.7,419.073,510.014,419.291z"/>
					</g>
				</g>
				<g>
					<path style="fill:#73990D;" d="M503.68,466.374c-2.178,0-4.413,0.361-6.642,1.073c-3.706,1.184-6.919,3.206-9.048,5.696
						c-2.277,2.664-3.075,5.562-2.244,8.161c0.105,0.33,0.337,0.604,0.644,0.762c0.187,0.096,0.392,0.145,0.598,0.145
						c0.133,0,0.267-0.021,0.397-0.062l26.038-8.316c0.686-0.219,1.064-0.952,0.846-1.638
						C513.124,468.604,509.067,466.374,503.68,466.374z M488.037,479.204c0.014-1.385,0.676-2.894,1.935-4.367
						c1.817-2.126,4.609-3.869,7.859-4.907c1.945-0.621,3.968-0.949,5.849-0.949c3.435,0,6.206,1.079,7.497,2.831L488.037,479.204z"
						/>
				</g>
				<g>
					<path style="fill:#73990D;" d="M493.089,394.033c-0.698-0.172-1.406,0.253-1.579,0.953c-0.173,0.699,0.254,1.405,0.953,1.579
						c11.296,2.793,20.149,11.069,23.682,22.137c5.569,17.433-4.085,36.147-21.52,41.717c-5.452,1.741-11.277,2.047-16.846,0.886
						c-0.706-0.147-1.395,0.305-1.543,1.01c-0.147,0.705,0.306,1.396,1.01,1.543c2.388,0.498,4.819,0.745,7.252,0.745
						c3.688,0,7.377-0.569,10.92-1.7c18.804-6.008,29.216-26.192,23.21-44.994C514.818,405.971,505.271,397.045,493.089,394.033z"/>
				</g>
				<g>
					<path style="fill:#73990D;" d="M496.498,461.473c-0.219-0.686-0.953-1.063-1.639-0.845c-0.686,0.219-1.064,0.953-0.845,1.639
						l1.981,6.199c0.177,0.554,0.69,0.907,1.241,0.907c0.132,0,0.265-0.02,0.397-0.062c0.686-0.219,1.064-0.953,0.845-1.639
						L496.498,461.473z"/>
				</g>
			</g>
		</g>
		<g>
			<path style="fill:#F5F5F5;" d="M574.976,333.925c-1.831-0.227-2.768,0.449-3.032,2.579l-0.453,3.666
				c-0.255,2.07-0.629,6.078-0.733,8.898l-0.13,0.045c-0.281-1.16-0.766-2.93-1.296-4.793l-3.325-11.29
				c-1.035-0.28-2.138-0.446-2.742-0.522c-0.601-0.074-2.112-0.169-2.885-0.084l-2.524,20.412c0.733,0.243,1.689,0.392,2.26,0.463
				c0.599,0.074,1.412,0.144,2.212,0.091l0.738-5.975c0.309-2.492,0.645-6.443,0.751-9.018l0.092-0.019
				c0.28,1.19,0.688,2.826,1.188,4.443l3.385,11.329c1.029,0.279,2.168,0.452,2.768,0.525c0.601,0.075,2.143,0.173,2.946,0.09
				l2.523-20.412l-0.183-0.236L574.976,333.925z"/>
			<path style="fill:#F5F5F5;" d="M589.055,335.423c-2.672-0.332-4.447,0.24-5.937,1.182c-2.781,1.793-3.91,5.248-4.299,8.4
				c-0.391,3.152-0.14,6.809,2.121,9.222c1.212,1.279,2.797,2.267,5.469,2.597c2.731,0.339,4.448-0.242,5.964-1.182
				c2.753-1.795,3.917-5.274,4.307-8.428c0.39-3.153,0.105-6.781-2.125-9.195C593.312,336.739,591.788,335.758,589.055,335.423z
				 M591.665,346.593c-0.39,3.153-1.319,6.968-4.801,6.539c-3.453-0.428-3.424-4.354-3.036-7.507
				c0.392-3.152,1.318-6.939,4.771-6.511C592.082,339.544,592.056,343.442,591.665,346.593z"/>
			<path style="fill:#F5F5F5;" d="M598.844,337.089c-0.237,0.703-0.362,1.449-0.429,1.989c-0.065,0.54-0.122,1.265-0.063,2.004
				l3.093,0.38c0.448,0.058,1.471,0.154,1.923,0.21l-2.044,16.537c0.79,0.252,1.716,0.397,2.376,0.479
				c0.661,0.081,1.568,0.163,2.427,0.117l1.769-14.319c0.101-0.811,0.142-1.385,0.244-2.225l0.031,0.004
				c0.452,0.055,1.438,0.208,1.888,0.264l0.87,0.108c1.74,0.216,2.593-0.259,2.789-1.851c0.075-0.599,0.078-1.362-0.014-1.86
				L598.844,337.089z"/>
			<path style="fill:#F5F5F5;" d="M616.345,339.254l-0.235,0.184l-2.177,17.589c-0.211,1.712,0.705,2.922,2.419,3.135l7.982,0.987
				c1.742,0.215,2.924-0.462,3.35-1.934c0.163-0.588,0.251-1.31,0.299-1.698l-6.963-0.862c-0.841-0.106-1.533-0.162-2.229-0.217
				l0.006-0.028c0.099-0.811,0.199-1.38,0.297-2.159l0.28-2.283l2.039,0.255l4.595,0.568c0.255-0.579,0.445-1.378,0.509-1.918
				c0.065-0.509,0.083-1.391-0.026-1.985l-4.594-0.565c-0.421-0.055-1.26-0.158-2.045-0.224l0.261-2.102
				c0.096-0.781,0.137-1.355,0.238-2.164l2.07,0.257l6.124,0.756c0.361-0.688,0.618-1.54,0.686-2.079
				c0.066-0.54,0.112-1.174,0.051-1.915L616.345,339.254z"/>
			<path style="fill:#F5F5F5;" d="M640.53,342.061c-2.161-0.268-4.539-0.501-6.947-0.737l-0.237,0.185l-2.499,20.201l0.185,0.237
				c2.573,0.378,5.059,0.746,7.367,1.032c4.595,0.571,7.764-0.929,8.286-5.129c0.295-2.402-1.055-4.766-2.987-5.673
				c1.613-0.472,2.958-1.982,3.179-3.783C647.346,344.612,644.704,342.578,640.53,342.061z M641.878,357.039
				c-0.154,1.261-0.925,2.81-3.387,2.507c-0.633-0.079-1.56-0.194-2.524-0.281l0.724-5.853l2.49,0.307
				C641.582,354.017,642.041,355.719,641.878,357.039z M642.154,348.143c-0.144,1.172-0.868,2.362-2.911,2.11l-2.129-0.262
				l0.597-4.833c0.746,0.122,1.617,0.229,2.158,0.297C641.879,345.702,642.301,346.974,642.154,348.143z"/>
			<path style="fill:#F5F5F5;" d="M659.596,344.145c-2.674-0.329-4.449,0.242-5.937,1.186c-2.783,1.791-3.91,5.246-4.3,8.4
				c-0.388,3.151-0.142,6.808,2.119,9.221c1.213,1.277,2.799,2.266,5.472,2.595c2.729,0.339,4.447-0.242,5.964-1.182
				c2.754-1.792,3.915-5.276,4.305-8.427c0.388-3.151,0.108-6.782-2.125-9.192C663.852,345.463,662.327,344.483,659.596,344.145z
				 M662.208,355.318c-0.391,3.153-1.321,6.966-4.802,6.537c-3.454-0.428-3.424-4.354-3.036-7.507
				c0.391-3.151,1.319-6.937,4.769-6.511C662.621,348.268,662.597,352.164,662.208,355.318z"/>
			<path style="fill:#F5F5F5;" d="M679.617,346.621c-2.67-0.329-4.448,0.242-5.935,1.188c-2.784,1.789-3.91,5.247-4.301,8.397
				c-0.389,3.154-0.142,6.807,2.121,9.222c1.214,1.277,2.799,2.265,5.47,2.596c2.731,0.339,4.448-0.241,5.968-1.183
				c2.75-1.794,3.913-5.275,4.304-8.428c0.387-3.154,0.105-6.782-2.125-9.19C683.875,347.939,682.348,346.959,679.617,346.621z
				 M682.229,357.793c-0.392,3.153-1.319,6.97-4.802,6.538c-3.452-0.426-3.422-4.353-3.034-7.505
				c0.388-3.152,1.316-6.94,4.765-6.513C682.643,350.744,682.618,354.64,682.229,357.793z"/>
			<path style="fill:#F5F5F5;" d="M704.137,349.928c-1.408-0.174-1.956,0.306-2.669,1.378l-3.517,5.02
				c-0.517,0.761-0.725,0.947-1.477,0.854l-0.784-0.069l0.983-7.923c-0.763-0.248-1.722-0.395-2.38-0.478
				c-0.572-0.069-1.626-0.17-2.423-0.116l-2.535,20.503c0.759,0.247,1.807,0.407,2.379,0.478c0.658,0.081,1.623,0.168,2.423,0.114
				l1.058-8.555c0.486,0.031,0.937,0.055,1.326,0.105c1.444,0.179,2.105,0.99,2.47,2.956l0.709,3.652
				c0.338,1.931,0.828,2.906,2.571,3.122c1.288,0.16,2.617-0.225,3.359-1.046c-0.878-1.054-0.981-1.919-1.212-3.016l-0.771-3.873
				c-0.342-1.657-0.896-3.097-2.883-3.801c0.762-0.484,1.39-1.138,1.953-1.983l4.518-6.451L707,350.433
				C706.053,350.226,704.92,350.025,704.137,349.928z"/>
		</g>
		<g>
			<g>
				<g>
					<path style="fill:#4A9608;" d="M433.726,292.134c-3.095-0.381-5.913,1.815-6.295,4.908c-0.383,3.096,1.815,5.913,4.909,6.294
						c3.094,0.384,5.912-1.814,6.294-4.907C439.017,295.335,436.819,292.517,433.726,292.134z"/>
					<g>
						<path style="fill:#231F20;" d="M409.231,298.585l22.407,2.771c2.062,0.255,3.941-1.21,4.196-3.275l-29.875-3.693
							C405.703,296.449,407.169,298.33,409.231,298.585z"/>
						<path style="fill:#58595B;" d="M432.561,293.887l-22.406-2.771c-2.062-0.255-3.941,1.21-4.197,3.272l29.875,3.693
							C436.089,296.02,434.624,294.141,432.561,293.887z"/>
					</g>
				</g>
				<g>
					<path style="fill:#4A9608;" d="M430.609,317.341c-3.094-0.381-5.911,1.816-6.294,4.91c-0.383,3.093,1.815,5.911,4.909,6.293
						c3.094,0.383,5.912-1.816,6.294-4.908C435.9,320.542,433.703,317.723,430.609,317.341z"/>
					<g>
						<path style="fill:#231F20;" d="M406.114,323.792l22.407,2.771c2.062,0.254,3.941-1.21,4.196-3.272l-29.877-3.694
							C402.586,321.658,404.051,323.537,406.114,323.792z"/>
						<path style="fill:#58595B;" d="M429.443,319.095l-22.407-2.771c-2.061-0.257-3.94,1.21-4.197,3.272l29.877,3.694
							C432.973,321.228,431.506,319.348,429.443,319.095z"/>
					</g>
				</g>
				<g>
					<path style="fill:#314444;" d="M427.491,342.549c-3.093-0.383-5.912,1.814-6.295,4.909c-0.382,3.093,1.816,5.912,4.909,6.294
						c3.092,0.381,5.913-1.816,6.293-4.908C432.782,345.75,430.583,342.933,427.491,342.549z"/>
					<g>
						<path style="fill:#231F20;" d="M402.997,349l22.405,2.77c2.064,0.255,3.944-1.209,4.196-3.272l-29.875-3.694
							C399.469,346.864,400.933,348.743,402.997,349z"/>
						<path style="fill:#58595B;" d="M426.326,344.302l-22.406-2.771c-2.062-0.255-3.942,1.21-4.197,3.273l29.875,3.694
							C429.854,346.435,428.389,344.556,426.326,344.302z"/>
					</g>
				</g>
				<g>
					<path style="fill:#314444;" d="M424.374,367.757c-3.094-0.383-5.913,1.815-6.294,4.909c-0.383,3.094,1.814,5.912,4.909,6.294
						c3.092,0.383,5.911-1.816,6.294-4.909C429.665,370.957,427.467,368.14,424.374,367.757z"/>
					<g>
						<path style="fill:#231F20;" d="M399.88,374.207l22.407,2.771c2.062,0.255,3.938-1.21,4.196-3.273l-29.877-3.695
							C396.352,372.071,397.817,373.952,399.88,374.207z"/>
						<path style="fill:#58595B;" d="M423.209,369.509l-22.405-2.772c-2.063-0.255-3.943,1.211-4.199,3.273l29.877,3.695
							C426.738,371.642,425.272,369.763,423.209,369.509z"/>
					</g>
				</g>
				<g>
					<path style="fill:#314444;" d="M421.257,392.964c-3.095-0.382-5.913,1.815-6.295,4.91c-0.383,3.094,1.814,5.913,4.909,6.295
						c3.091,0.382,5.911-1.817,6.293-4.91C426.548,396.165,424.35,393.346,421.257,392.964z"/>
					<g>
						<path style="fill:#231F20;" d="M396.763,399.414l22.405,2.771c2.063,0.256,3.941-1.21,4.197-3.272l-29.877-3.694
							C393.233,397.279,394.699,399.159,396.763,399.414z"/>
						<path style="fill:#58595B;" d="M420.092,394.716l-22.405-2.773c-2.063-0.254-3.942,1.212-4.198,3.275l29.877,3.694
							C423.621,396.85,422.153,394.971,420.092,394.716z"/>
					</g>
				</g>
				<g>
					<path style="fill:#314444;" d="M418.14,418.172c-3.095-0.383-5.913,1.814-6.296,4.91c-0.382,3.092,1.815,5.911,4.91,6.293
						c3.092,0.383,5.911-1.816,6.293-4.908C423.43,421.372,421.233,418.555,418.14,418.172z"/>
					<g>
						<path style="fill:#231F20;" d="M393.645,424.622l22.407,2.77c2.063,0.255,3.94-1.208,4.197-3.272l-29.876-3.694
							C390.115,422.489,391.582,424.366,393.645,424.622z"/>
						<path style="fill:#58595B;" d="M416.974,419.924l-22.407-2.772c-2.061-0.254-3.941,1.211-4.196,3.273l29.876,3.694
							C420.503,422.058,419.036,420.178,416.974,419.924z"/>
					</g>
				</g>
			</g>
			<g>
				<g>
					<path style="fill:#314444;" d="M407.056,507.798c-3.095-0.381-5.912,1.815-6.294,4.91c-0.384,3.093,1.813,5.912,4.907,6.294
						c3.094,0.383,5.913-1.816,6.294-4.909C412.346,511,410.148,508.181,407.056,507.798z"/>
					<g>
						<path style="fill:#231F20;" d="M382.562,514.249l22.405,2.77c2.063,0.255,3.943-1.211,4.198-3.272l-29.877-3.695
							C379.032,512.115,380.498,513.994,382.562,514.249z"/>
						<path style="fill:#58595B;" d="M405.89,509.55l-22.405-2.77c-2.062-0.257-3.941,1.21-4.197,3.272l29.877,3.695
							C409.418,511.684,407.952,509.805,405.89,509.55z"/>
					</g>
				</g>
				<g>
					<path style="fill:#314444;" d="M403.939,533.007c-3.095-0.382-5.913,1.815-6.296,4.907c-0.382,3.097,1.815,5.913,4.909,6.296
						c3.094,0.382,5.913-1.814,6.293-4.908C409.228,536.208,407.031,533.39,403.939,533.007z"/>
					<g>
						<path style="fill:#231F20;" d="M379.443,539.456l22.407,2.771c2.062,0.254,3.941-1.21,4.196-3.272l-29.875-3.696
							C375.916,537.322,377.381,539.201,379.443,539.456z"/>
						<path style="fill:#58595B;" d="M402.773,534.758l-22.405-2.772c-2.062-0.255-3.942,1.211-4.197,3.272l29.875,3.696
							C406.3,536.892,404.835,535.013,402.773,534.758z"/>
					</g>
				</g>
				<g>
					<path style="fill:#314444;" d="M400.821,558.215c-3.095-0.383-5.913,1.815-6.295,4.907c-0.383,3.094,1.815,5.913,4.908,6.294
						c3.093,0.383,5.91-1.815,6.294-4.908C406.112,561.415,403.914,558.596,400.821,558.215z"/>
					<g>
						<path style="fill:#231F20;" d="M376.325,564.663l22.408,2.771c2.063,0.255,3.942-1.209,4.196-3.273l-29.876-3.695
							C372.798,562.53,374.264,564.408,376.325,564.663z"/>
						<path style="fill:#58595B;" d="M399.656,559.966l-22.406-2.771c-2.063-0.256-3.942,1.209-4.197,3.271l29.876,3.695
							C403.183,562.1,401.718,560.221,399.656,559.966z"/>
					</g>
				</g>
				<g>
					<path style="fill:#314444;" d="M397.704,583.421c-3.093-0.381-5.912,1.816-6.295,4.91c-0.382,3.093,1.816,5.911,4.908,6.293
						c3.094,0.384,5.912-1.814,6.295-4.908C402.995,586.623,400.797,583.803,397.704,583.421z"/>
					<g>
						<path style="fill:#231F20;" d="M373.209,589.872l22.406,2.771c2.062,0.255,3.942-1.211,4.197-3.272l-29.876-3.695
							C369.681,587.737,371.146,589.617,373.209,589.872z"/>
						<path style="fill:#58595B;" d="M396.539,585.172l-22.407-2.769c-2.064-0.255-3.941,1.21-4.197,3.272l29.876,3.695
							C400.067,587.308,398.6,585.428,396.539,585.172z"/>
					</g>
				</g>
				<g>
					<path style="fill:#314444;" d="M394.587,608.628c-3.096-0.382-5.913,1.817-6.297,4.911c-0.382,3.092,1.816,5.911,4.91,6.293
						c3.094,0.383,5.911-1.815,6.294-4.908C399.877,611.831,397.679,609.012,394.587,608.628z"/>
					<g>
						<path style="fill:#231F20;" d="M370.091,615.079l22.405,2.769c2.063,0.255,3.944-1.209,4.197-3.271l-29.875-3.694
							C366.564,612.943,368.029,614.823,370.091,615.079z"/>
						<path style="fill:#58595B;" d="M393.422,610.381l-22.406-2.772c-2.064-0.255-3.941,1.211-4.197,3.274l29.875,3.694
							C396.948,612.514,395.484,610.636,393.422,610.381z"/>
					</g>
				</g>
				<g>
					<path style="fill:#314444;" d="M391.469,633.836c-3.095-0.381-5.912,1.815-6.294,4.907c-0.383,3.095,1.816,5.914,4.907,6.296
						c3.094,0.382,5.912-1.816,6.295-4.908C396.76,637.037,394.562,634.218,391.469,633.836z"/>
					<g>
						<path style="fill:#231F20;" d="M366.974,640.287l22.407,2.77c2.062,0.255,3.942-1.21,4.197-3.274L363.7,636.09
							C363.445,638.152,364.911,640.032,366.974,640.287z"/>
						<path style="fill:#58595B;" d="M390.304,635.587l-22.406-2.769c-2.062-0.256-3.941,1.209-4.197,3.272l29.877,3.693
							C393.831,637.723,392.366,635.841,390.304,635.587z"/>
					</g>
				</g>
			</g>
		</g>
	</g>
	<g style="opacity:0.3;">
		<polygon style="fill:#231F20;" points="280.517,505.565 267.579,492.805 264.796,494.946 273.813,510.724 293.605,545.354 
			293.604,545.354 397.872,680.513 397.097,685.766 407.706,693.262 410.845,697.33 462.338,764.079 468.846,762.898 
			468.845,762.897 468.846,762.897 473.31,759.463 474.76,758.347 474.761,758.348 477.754,752.441 308.917,533.574 		"/>
	</g>
	<g>
		<g>
			<polygon style="fill:#27AAE1;" points="299.071,531.34 467.804,750.065 474.312,748.883 480.226,744.333 483.219,738.428 
				314.382,519.56 			"/>
			<polygon style="fill:#41E3F7;" points="308.889,523.313 480.227,744.334 483.219,738.428 314.382,519.56 			"/>
			<polygon style="opacity:0.4;fill:#41E3F7;" points="299.07,531.341 467.804,750.065 474.312,748.884 304.56,527.117 			"/>
			<polygon style="opacity:0.3;fill:#FFFFFF;" points="309.371,523.642 480.123,744.641 481.574,743.525 482.48,741.737 
				312.385,521.323 			"/>
			<path style="fill:#FEA261;" d="M301.872,519.425l-2.801,11.915c0,0,1.546,1.185,3.006,0.168c1.387-0.966,0.656-3.038,0.656-3.038
				s2.468,1.472,5.94-1.066c2.834-2.074,2.365-5.273,2.365-5.273s1.601,1.004,3.147-0.152c1.056-0.789,0.198-2.418,0.198-2.418
				L301.872,519.425z"/>
			<g>
				<g>
					<polygon style="fill:#414042;" points="270.262,480.932 279.279,496.71 285.983,491.551 273.045,478.791 					"/>
				</g>
				<polygon style="fill:#FEA261;" points="279.279,496.71 299.071,531.34 314.382,519.56 285.983,491.551 				"/>
			</g>
			<g style="opacity:0.5;">
				<polygon style="fill:#8C8C99;" points="271.385,480.069 281.617,494.91 283.862,493.185 271.955,479.63 				"/>
			</g>
			<path style="fill:#F9B587;" d="M283.862,493.185l-2.244,1.725l21.116,33.56c0,0,2.54,1.37,5.801-0.97
				c3.215-2.306,2.503-5.369,2.503-5.369L283.862,493.185z"/>
		</g>
	</g>
	<g style="opacity:0.4;">
		<path style="fill:#231F20;" d="M651.861,427.375c-50.655-8.103-98.284,26.392-106.387,77.046
			c-7.62,47.641,22.444,92.596,68.189,104.518l-0.785,4.904l-1.882,11.768l-4.87-0.78l-4.417,27.611
			c-4.978-0.646-9.599,2.772-10.398,7.76l-16.423,100.369c-0.812,5.082,4.048-3.393,9.131-2.581l8.619,1.379l1.338,3.654
			l4.864-2.662l12.225,1.956c5.083,0.811,9.862-2.65,10.676-7.733l15.023-87.113c0.797-4.99-2.527-9.678-7.46-10.615l4.417-27.611
			l-4.869-0.778l2.666-16.673c47.181,2.943,89.767-30.393,97.388-78.033C737.009,483.108,702.514,435.477,651.861,427.375z
			 M713.327,530.521c-6.909,43.198-47.529,72.615-90.727,65.706c-43.198-6.91-72.615-47.529-65.706-90.726
			c6.909-43.196,47.529-72.615,90.729-65.705C690.819,446.705,720.237,487.325,713.327,530.521z"/>
		<g style="opacity:0.5;">
			<path style="fill:#231F20;" d="M652.335,424.412c-5.05-0.808-10.184-1.217-15.258-1.217c-22.546,0-44.497,8.058-61.81,22.69
				c-17.498,14.789-29.131,35.409-32.755,58.063c-3.788,23.681,1.375,47.75,14.538,67.775
				c12.573,19.128,31.398,33.038,53.227,39.395l-0.361,2.252l-1.408,8.806l-1.908-0.305c-0.158-0.025-0.316-0.038-0.474-0.038
				c-0.628,0-1.244,0.197-1.759,0.57c-0.644,0.467-1.077,1.17-1.203,1.956l-4.012,25.079c-5.473,0.59-9.914,4.736-10.803,10.292
				l-16.421,100.359c-0.137,0.856-0.418,2.615,0.73,3.96c0.627,0.735,1.545,1.157,2.519,1.157c1.437,0,2.487-0.831,3.817-1.883
				c1.202-0.951,3.019-2.387,4.321-2.387c0.081,0,0.157,0.006,0.232,0.018l6.879,1.101l0.733,2.001
				c0.3,0.821,0.944,1.469,1.762,1.777c0.341,0.128,0.699,0.192,1.055,0.192c0.498,0,0.994-0.124,1.44-0.368l3.963-2.169
				l11.212,1.794c0.647,0.103,1.304,0.155,1.954,0.155c6.083,0,11.196-4.364,12.158-10.377l15.017-87.077
				c0.904-5.654-2.087-10.955-7.048-13.189l4.011-25.073c0.126-0.786-0.066-1.589-0.533-2.234c-0.467-0.645-1.17-1.077-1.956-1.203
				l-1.906-0.305l1.769-11.06c1.086,0.037,2.172,0.056,3.25,0.056c22.547,0,44.498-8.056,61.808-22.683
				c17.497-14.785,29.129-35.403,32.753-58.057C740.219,482.03,704.541,432.763,652.335,424.412z M728.906,533.762
				c-7.308,45.685-46.764,78.213-91.599,78.213c-1.918,0-3.853-0.06-5.789-0.181l-2.666,16.673l4.869,0.778l-4.417,27.611
				c4.932,0.938,8.257,5.626,7.46,10.615l-15.023,87.113c-0.734,4.586-4.695,7.851-9.195,7.851c-0.488,0-0.983-0.039-1.48-0.118
				l-12.225-1.956l-4.864,2.662l-1.338-3.654l-8.619-1.379c-0.236-0.038-0.47-0.055-0.704-0.055c-3.639,0-7.031,4.27-8.138,4.27
				c-0.359,0-0.478-0.448-0.289-1.633l16.423-100.369c0.734-4.582,4.692-7.839,9.19-7.838c0.399,0,0.802,0.025,1.208,0.078
				l4.417-27.61l4.87,0.779l1.882-11.768l0.785-4.904c-45.745-11.923-75.809-56.878-68.189-104.518
				c7.308-45.686,46.768-78.227,91.602-78.227c4.876,0,9.816,0.385,14.784,1.18C702.514,435.477,737.009,483.108,728.906,533.762z"
				/>
			<path style="fill:#231F20;" d="M647.623,439.796c-4.24-0.678-8.449-1.006-12.61-1.006c-38.233,0.003-71.888,27.754-78.119,66.711
				c-6.909,43.197,22.509,83.816,65.706,90.726c4.24,0.678,8.447,1.006,12.608,1.006c38.231,0,71.888-27.753,78.119-66.711
				C720.237,487.325,690.819,446.705,647.623,439.796z M710.364,530.047c-2.88,18.005-12.125,34.394-26.033,46.148
				c-13.763,11.632-31.209,18.038-49.123,18.038c-4.035,0-8.117-0.326-12.134-0.968c-41.495-6.637-69.854-45.794-63.218-87.289
				c2.88-18.003,12.125-34.392,26.033-46.146c13.763-11.631,31.209-18.038,49.124-18.039c4.036,0,8.118,0.326,12.135,0.969
				c20.101,3.215,37.746,14.065,49.686,30.552C708.775,489.798,713.58,509.947,710.364,530.047z"/>
		</g>
	</g>
	<g>
		
			<rect x="598.705" y="601.792" transform="matrix(0.158 -0.9874 0.9874 0.158 -87.9581 1118.5188)" style="fill:#55747C;" width="26.303" height="18.082"/>
		<polygon style="opacity:0.3;fill:#8FAEBC;" points="600.947,621.79 612.947,622.528 614.564,611.48 603.589,605.277 		"/>
		<path style="fill:#8FAEBC;" d="M621.133,622.305l-21.671-3.466c-1.629-0.261-3.176,0.859-3.436,2.489l-4.506,28.166
			c-0.261,1.629,0.859,3.176,2.488,3.436l21.672,3.465c1.629,0.26,3.176-0.859,3.436-2.489l4.505-28.164
			C623.883,624.112,622.763,622.565,621.133,622.305z"/>
		<g style="opacity:0.7;">
			<path style="fill:#CAE8EF;" d="M606.603,622.604l-5.993-0.959c-1.086-0.174-2.117,0.573-2.291,1.659l-4.263,26.642
				c-0.174,1.086,0.573,2.117,1.659,2.291l6.314,1.01c1.086,0.173,2.108-0.575,2.27-1.663l3.983-26.686
				C608.445,623.81,607.69,622.777,606.603,622.604z"/>
		</g>
		<path style="fill:#BF4C28;" d="M619.407,650.331l-27.046-4.327c-5.083-0.813-9.862,2.65-10.676,7.731l-14.423,88.474
			c-0.812,5.082,2.648,9.864,7.731,10.675l29.556,1.495c5.083,0.811,7.352,0.184,8.166-4.899l14.423-88.474
			C627.951,655.924,624.49,651.143,619.407,650.331z"/>
		<g>
			<path style="fill:#F2795C;" d="M598.831,650.685l-4.601-0.736c-0.396-0.063-0.799-0.095-1.195-0.095
				c-3.644,0-6.828,2.724-7.406,6.329l-9.606,58.932c-0.222,1.362,0.703,2.648,2.065,2.87c0.137,0.022,0.271,0.033,0.405,0.033
				c1.204,0,2.265-0.872,2.465-2.098l9.607-58.938c0.213-1.328,1.556-2.303,2.877-2.095l4.6,0.736
				c1.368,0.22,2.644-0.711,2.863-2.074C601.123,652.185,600.194,650.902,598.831,650.685z"/>
		</g>
		<g>
			<path style="fill:#B6D3DD;" d="M642.236,420.907c-50.655-8.103-98.285,26.392-106.387,77.046
				c-8.102,50.654,26.392,98.283,77.046,106.386c50.654,8.103,98.284-26.393,106.386-77.045
				C727.383,476.641,692.888,429.009,642.236,420.907z M707.106,525.346c-7.027,43.93-48.333,73.845-92.264,66.818
				c-43.93-7.026-73.846-48.334-66.819-92.263c7.027-43.93,48.335-73.846,92.264-66.82
				C684.218,440.109,714.133,481.418,707.106,525.346z"/>
		</g>
		<path style="fill:#8FAEBC;" d="M687.132,441.346l-2.523,3.482c5.457,4.608,10.393,9.911,14.691,15.845
			c13.876,19.161,19.461,42.58,15.724,65.94c-3.347,20.926-14.092,39.973-30.254,53.632c-15.995,13.518-36.27,20.962-57.09,20.962
			c-4.689,0-9.434-0.379-14.104-1.126c-11.948-1.912-22.954-6.148-32.641-12.166l-2.554,3.525
			c10.223,6.386,21.865,10.875,34.515,12.898c4.968,0.795,9.909,1.18,14.785,1.18c44.834,0,84.294-32.54,91.602-78.225
			C724.638,493.807,711.372,461.643,687.132,441.346z"/>
		<path style="fill:#912D19;" d="M619.272,650.331l-3.007-0.481c-0.015,0.125-0.021,0.25-0.041,0.376L601.801,738.7
			c-0.814,5.083-3.083,5.71-8.166,4.899l-26.513-1.34c-0.782,5.063,2.67,9.817,7.736,10.625l29.556,1.495
			c5.083,0.811,7.352,0.183,8.166-4.9l14.424-88.474C627.816,655.924,624.356,651.143,619.272,650.331z"/>
	</g>
	<g style="opacity:0.3;">
		<polygon style="fill:#231F20;" points="480.89,626.156 478.758,620.01 466.962,624.1 477.131,620.572 438.05,506.127 
			419.373,462.781 405.065,435.54 403.981,435.915 397.673,424.737 395.503,425.49 397.473,438.172 396.387,438.549 
			401.475,468.988 414.186,514.402 454.353,628.472 458.509,627.029 458.509,627.031 452.726,629.037 454.856,635.183 
			474.436,689.751 474.167,695.107 478.832,702.001 491.113,736.229 500.198,751.914 505.079,750.221 510.504,748.341 
			510.504,748.34 517.554,745.895 514.977,727.954 		"/>
	</g>
	<g>
		
			<rect x="458.783" y="612.407" transform="matrix(0.9539 -0.3 0.3 0.9539 -162.9407 170.1392)" style="fill:#E6E7E8;" width="27.554" height="6.505"/>
		<polygon style="fill:#CBCACF;" points="411.853,455.224 423.243,500.987 447.337,493.407 429.924,449.538 		"/>
		<polygon style="fill:#414042;" points="407.146,411.57 408.746,424.307 415.317,422.239 409.336,410.881 		"/>
		<polygon style="fill:#E6E7E8;" points="493.707,724.951 502.333,740.893 519.856,735.38 517.8,717.371 		"/>
		<polygon style="fill:#383D63;" points="423.243,500.987 460.086,616.173 483.083,608.938 447.337,493.407 		"/>
		<polygon style="fill:#383D63;" points="460.394,622.896 493.707,724.951 517.8,717.371 486.679,614.627 		"/>
		<polygon style="fill:#E6E7E8;" points="407.65,424.65 411.853,455.224 429.924,449.538 416.412,421.893 		"/>
		<g style="opacity:0.2;">
			<polygon style="fill:#0B0E15;" points="480.8,616.681 478.863,610.47 442.665,495.082 409.797,410.926 407.605,411.609 
				434.308,497.689 470.323,613.136 472.261,619.346 504.23,721.822 509.118,738.94 514.599,737.229 512.77,719.158 			"/>
		</g>
	</g>
	<path style="opacity:0.4;fill:#45456D;" d="M504.81,481.93l-21.686-109.756c1.919-10.603,1.854-24.784-0.253-37.067
		c-3.852-22.461-13.057-30.043-22.529-28.419c-0.138,0.023-0.272,0.054-0.408,0.082c-0.073,0.01-0.143,0.012-0.218,0.025
		c-0.736,0.126-1.406,0.338-2.026,0.611c-7.917,3.001-12.6,13.296-9.121,33.583c0.006,0.039,0.015,0.078,0.021,0.116
		c0.003,0.014,0.004,0.025,0.006,0.038c2.105,12.277,6.765,25.664,12.105,35.019l16.106,110.569l0.138,0.939l53.435,276.224
		l7.43-5.026l7.556,0.362l-40.374-276.37L504.81,481.93z"/>
	<g>
		<path style="fill:#702D24;" d="M469.23,289.44c-9.495,1.486-15.796,11.61-12.273,34.127c3.522,22.518,15.535,48.9,25.03,47.415
			c9.496-1.485,12.878-30.276,9.354-52.794C487.817,295.671,478.724,287.955,469.23,289.44z"/>
		<path style="fill:#AB2D24;" d="M469.858,289.343c-10.722,1.677-10.674,22.204-9.883,30.115
			c1.796,17.965,13.105,42.935,14.013,43.116c0.807-0.448,10.648-6.335,12.217-17.535c1.341-9.58,1.198-21.33-0.38-31.432
			C484.594,305.753,480.578,287.664,469.858,289.343z"/>
		<g style="opacity:0.4;">
			<path style="fill:#2A2D24;" d="M473.977,289.659c-7.535,2.852-10.184,13.229-7.535,30.159c2.846,18.194,7.545,41.679,21,46.613
				c5.226-9.322,6.659-30.595,3.922-48.087C488.433,299.606,481.646,291.125,473.977,289.659z"/>
		</g>
		<polygon style="fill:#F28F36;" points="511.126,465.325 483.056,469.716 483.18,470.656 534.101,755.907 543.519,765.958 
			549.096,753.563 511.295,466.259 		"/>
		<polygon style="fill:#F1F2F2;" points="468.542,358.682 483.056,469.716 511.126,465.325 491.034,355.164 		"/>
		<polygon style="opacity:0.3;fill:#58595B;" points="478.157,357.101 545.316,765.598 548.99,757.342 489.404,355.341 		"/>
	</g>
	<g style="opacity:0.5;">
		<polygon style="fill:#231F20;" points="784.419,379.479 783.046,379.018 774.783,395.663 756.647,432.196 660.083,719.519 
			664.795,724.375 664.796,724.372 672.027,726.804 672.027,726.805 678.749,725.981 775.373,438.49 782.983,398.418 
			786.45,380.161 784.619,379.546 		"/>
	</g>
	<g>
		<polygon style="fill:#FA594D;" points="646.145,719.519 650.857,724.372 658.09,726.804 664.811,725.981 761.435,438.49 
			742.71,432.197 		"/>
		<polygon style="fill:#D10315;" points="659.205,727.171 664.875,725.994 761.5,438.512 756.351,436.378 		"/>
		<polygon style="fill:#FA0315;" points="646.145,719.519 650.857,724.375 749.422,434.453 742.71,432.196 		"/>
		<polygon style="opacity:0.3;fill:#FFFFFF;" points="650.088,725.411 651.858,726.017 653.894,725.779 752.737,436.89 
			749.06,435.631 		"/>
		<path style="fill:#FEA261;" d="M742.71,432.197c0,0-0.125,1.989,1.569,2.649c1.611,0.629,2.954-1.173,2.954-1.173
			s0.155,2.934,4.29,4.436c3.374,1.226,5.822-0.993,5.822-0.993s0.061,1.931,1.923,2.586c1.273,0.446,2.167-1.211,2.167-1.211
			l-7.011-10.701L742.71,432.197z"/>
		<g>
			<g>
				<polygon style="fill:#414042;" points="760.846,395.663 769.046,398.418 772.513,380.161 769.109,379.018 				"/>
			</g>
			<polygon style="fill:#FEA261;" points="742.71,432.197 761.435,438.49 769.046,398.418 760.846,395.663 			"/>
		</g>
		<g style="opacity:0.5;">
			<polygon style="fill:#8C8C99;" points="763.706,396.622 766.451,397.547 771.178,379.713 770.481,379.479 			"/>
		</g>
		<path style="fill:#F9B587;" d="M747.233,433.673c0,0,0.284,2.938,4.129,4.374c3.789,1.417,5.983-0.932,5.983-0.932l9.105-39.568
			l-2.744-0.925L747.233,433.673z"/>
	</g>
	<polygon style="opacity:0.5;fill:#231F20;" points="687.529,755.135 687.53,755.134 694.087,758.694 694.088,758.694 
		694.087,758.695 700.7,759.034 809.831,557.431 809.831,516.849 683.811,749.666 	"/>
	<g>
		<g>
			<polygon style="fill:#FABD15;" points="669.873,749.666 673.592,755.134 680.149,758.694 686.762,759.034 818.351,515.945 
				801.375,506.727 			"/>
			<polygon style="fill:#ED9430;" points="680.149,758.695 686.762,759.034 818.351,515.945 812.693,512.446 			"/>
			<polygon style="fill:#FFE800;" points="669.873,749.666 673.591,755.135 807.461,510.032 801.373,506.727 			"/>
			<polygon style="opacity:0.3;fill:#FFFFFF;" points="671.356,753.689 672.963,754.562 674.966,754.666 807.458,509.799 
				804.118,507.985 			"/>
			<path style="fill:#FEA261;" d="M801.375,506.727c0,0-0.455,1.893,1.065,2.814c1.447,0.878,3.044-0.631,3.044-0.631
				s-0.345,2.853,3.384,4.996c3.044,1.75,5.776,0.025,5.776,0.025s-0.267,1.869,1.417,2.815c1.149,0.645,2.29-0.801,2.29-0.801
				l-4.948-11.49L801.375,506.727z"/>
			<g>
				<g>
					<polygon style="fill:#414042;" points="825.003,474.592 832.437,478.627 838.855,461.626 835.768,459.952 					"/>
				</g>
				<polygon style="fill:#FEA261;" points="801.375,506.727 818.351,515.945 832.437,478.627 825.003,474.592 				"/>
			</g>
			<g style="opacity:0.5;">
				<polygon style="fill:#8C8C99;" points="827.596,475.999 830.085,477.35 837.644,460.971 837.013,460.627 				"/>
			</g>
			<path style="fill:#F9B587;" d="M805.484,508.91c0,0-0.222,2.878,3.239,4.909c3.411,2.004,5.922,0.112,5.922,0.112l15.44-36.581
				l-2.489-1.352L805.484,508.91z"/>
		</g>
	</g>
	<g>
		<rect x="241.901" y="687.023" style="fill:#373C42;" width="0.192" height="27.785"/>
		<path style="fill:#6D6E71;" d="M791.998,764.17c5.42-1.616,9.384-6.646,9.384-12.583
			C801.383,757.523,797.418,762.554,791.998,764.17z"/>
		<g>
			<path style="fill:#141519;" d="M242.093,686.889h-49.905v64.699c0,7.238,5.889,13.126,13.127,13.126h314.803l16.366-49.905
				h-294.39V686.889z"/>
			<path style="fill:#222327;" d="M751.477,714.808L751.477,714.808l-214.993,0.001l-16.366,49.905h268.137
				c0.452,0,0.898-0.023,1.339-0.067c0.414-0.043,0.821-0.104,1.222-0.184c6.017-1.195,10.567-6.515,10.567-12.875v-64.699h-49.906
				V714.808z"/>
			<rect x="536.484" y="714.808" style="fill:#222327;" width="214.993" height="0.001"/>
		</g>
	</g>
	<path style="opacity:0.7;fill:#525356;" d="M183.358,424.954v50.255c11.442,3.405,25.496,5.263,41.754,5.441
		c52.329,0.574,102.761-35.55,124.462-71.401c12.893-21.297,21.435-45.935,23.823-74.807l-58.805,19.284L183.358,424.954z"/>
	<g>
		<g>
			<path style="fill:#314444;" d="M323.326,212.943l-81.242,116.555L100.11,324.15l49.067,97.359
				c8.888,17.84,35.654,25.215,74.721,25.401c57.276,0.272,105.791-31.784,128.132-63.835
				c22.342-32.052,27.689-58.204,19.933-72.559L323.326,212.943z"/>
			<path style="opacity:0.4;fill:#231F20;" d="M242.084,329.498L100.11,324.15l32.437,63.644
				c54.085,52.241,232.318,14.136,233.907-87.846l-43.129-87.005L242.084,329.498z"/>
			<polygon style="fill:#324446;" points="332.393,206.781 178.543,202.145 90.545,327.271 60.068,350.282 65.994,362.178 
				65.999,362.175 261.951,369.559 375.307,208.077 375.312,208.074 369.386,196.178 			"/>
			<polygon style="fill:#4E6566;" points="60.068,350.282 256.023,357.661 369.386,196.178 172.615,190.246 			"/>
		</g>
		<g>
			<g style="opacity:0.4;">
				<polygon style="fill:#193C42;" points="101.203,353.376 101.203,363.825 117.797,363.825 117.797,353.991 219.781,274.064 
					206.299,273.479 				"/>
			</g>
			<path style="fill:#F4A721;" d="M107.577,452.028c2.878-2.179,4.738-5.629,4.715-9.517c-0.038-6.545-5.378-11.821-11.924-11.783
				c-6.543,0.038-11.821,5.377-11.782,11.922c0.022,3.915,1.95,7.365,4.887,9.507c-8.279,2.981-14.179,10.923-14.124,20.224
				c0,0,0.205,24.683,0.23,29.057c0.087,14.941,42.809,14.038,42.725-0.251c-0.072-12.41-0.23-29.056-0.23-29.056
				C122.021,462.78,115.963,454.872,107.577,452.028z"/>
			<g>
				<path style="fill:#F4A721;" d="M203.098,272.42L97.783,349.859c-1.119,0.823-1.78,2.129-1.78,3.518v77.351
					c0,2.411,1.955,4.366,4.366,4.366c2.412,0,4.366-1.955,4.366-4.366v-75.142l103.535-76.13c1.943-1.429,2.36-4.162,0.931-6.105
					C207.773,271.408,205.04,270.991,203.098,272.42z"/>
			</g>
			<g>
				<path style="fill:#193C42;" d="M208.633,261.923c-8.399,4.185-13.584,10.836-11.582,14.852
					c2.001,4.017,10.432,3.883,18.831-0.301c8.398-4.184,13.585-10.835,11.583-14.852
					C225.465,257.606,217.031,257.741,208.633,261.923z"/>
				
					<rect x="194.171" y="264.049" transform="matrix(0.8951 -0.4459 0.4459 0.8951 -96.894 122.1726)" style="fill:#193C42;" width="33.935" height="5.825"/>
				<path style="fill:#314444;" d="M206.36,257.36c-8.4,4.184-13.584,10.833-11.581,14.853c1.999,4.015,10.431,3.88,18.829-0.304
					c8.398-4.184,13.586-10.834,11.586-14.849C223.191,253.04,214.756,253.177,206.36,257.36z"/>
			</g>
			<path style="fill:#DD7C12;" d="M112.293,442.511c-0.034-5.734-4.137-10.493-9.554-11.559c0.091,0.11,0.237,0.219,0.461,0.325
				c2.919,1.383,7.068,7.683,3.227,14.136c-3.841,6.453-14.136,5.992-16.133,3.227l-0.005,0.012c0.824,1.368,1.9,2.567,3.186,3.505
				c-1.456,0.524-2.834,1.21-4.124,2.022c0.008-0.003,0.013-0.005,0.021-0.008c2.612-1.076,5.685,1.844,13.368,1.537
				c7.055-0.282,9.574-1.205,11.843,0.311c-2.04-1.743-4.41-3.11-7.005-3.99C110.455,449.849,112.315,446.398,112.293,442.511z"/>
			<path style="fill:#DD7C12;" d="M121.792,477.141c0,15.903-0.461,23.739-15.211,29.501c-13.712,5.356-24.233,0.157-26.757-3.378
				c3.42,13.012,42.562,11.603,42.482-2.076c-0.058-9.965-0.171-22.655-0.214-27.271
				C121.903,474.772,121.792,475.824,121.792,477.141z"/>
		</g>
	</g>
</g>
<radialGradient id="SVGID_00000119088364102692976510000013690310953721425802_" cx="627.5648" cy="512.6218" r="90.4404" gradientUnits="userSpaceOnUse">
	<stop  offset="0.5504" style="stop-color:#FFFFFF"/>
	<stop  offset="0.5792" style="stop-color:#F6F6F6"/>
	<stop  offset="0.626" style="stop-color:#DEDEDE"/>
	<stop  offset="0.6853" style="stop-color:#B6B6B6"/>
	<stop  offset="0.7545" style="stop-color:#7F7F7F"/>
	<stop  offset="0.8312" style="stop-color:#393939"/>
	<stop  offset="0.8888" style="stop-color:#000000"/>
</radialGradient>
<path style="opacity:0.2;fill:url(#SVGID_00000119088364102692976510000013690310953721425802_);" d="M640.077,434.407
	c-43.2-6.911-83.82,22.508-90.729,65.705c-6.909,43.197,22.509,83.816,65.706,90.726c43.198,6.91,83.818-22.508,90.727-65.705
	C712.691,481.935,683.274,441.315,640.077,434.407z"/>
<path style="fill:#CAE8EF;" d="M627.451,419.728c-44.834,0-84.295,32.54-91.603,78.226c-6.078,38.004,11.82,74.305,42.531,93.488
	l2.554-3.525c-29.413-18.271-46.63-53.005-40.828-89.282c3.347-20.926,14.092-39.974,30.254-53.633
	c15.995-13.518,36.27-20.962,57.091-20.962c4.689,0,9.434,0.379,14.104,1.125c16.126,2.58,30.89,9.391,43.054,19.664l2.523-3.482
	c-12.425-10.404-27.731-17.693-44.896-20.439C637.267,420.112,632.327,419.728,627.451,419.728z"/>
<path style="fill:#F1F2F2;" d="M551.294,459.578l2.798,3.604c4.53-6.734,9.983-12.869,16.268-18.181
	c14.427-12.192,32.339-19.423,50.989-20.728l-1.167-4.242C592.217,422.238,566.986,437.05,551.294,459.578z"/>
<g>
	<path style="fill:#678389;" d="M640.408,432.34c-4.283-0.685-8.637-1.033-12.94-1.033c-19.118,0-37.732,6.833-52.413,19.241
		c-14.837,12.54-24.701,30.024-27.773,49.233c-7.08,44.269,23.175,86.044,67.443,93.125c4.282,0.685,8.636,1.032,12.939,1.032
		c0.001,0,0,0,0.001,0c19.115,0,37.729-6.833,52.41-19.24c14.837-12.54,24.701-30.025,27.773-49.234
		c3.431-21.444-1.695-42.94-14.433-60.53C680.676,447.345,661.852,435.77,640.408,432.34z M704.864,524.986
		c-2.958,18.495-12.455,35.33-26.74,47.404c-14.136,11.947-32.057,18.526-50.46,18.526c-4.145,0-8.338-0.335-12.463-0.995
		c-42.622-6.817-71.753-47.04-64.936-89.663c2.958-18.495,12.454-35.33,26.74-47.403c14.136-11.947,32.057-18.526,50.462-18.526
		c4.143,0,8.338,0.335,12.464,0.995c20.646,3.302,38.771,14.447,51.036,31.382C703.231,483.642,708.167,504.339,704.864,524.986z"/>
</g>
<g>
	<path style="fill:#FFFFFF;" d="M592.844,449.523c-5.642,3.037-10.862,6.853-15.513,11.344
		c-5.847,5.645-10.621,12.169-14.189,19.393c-1.027,2.078-0.175,4.596,1.903,5.622c0.598,0.295,1.232,0.436,1.857,0.436
		c1.547,0,3.034-0.859,3.766-2.339c3.141-6.355,7.344-12.1,12.494-17.072c4.099-3.957,8.694-7.318,13.661-9.991
		c2.041-1.099,2.806-3.643,1.707-5.685C597.432,449.189,594.888,448.424,592.844,449.523z"/>
</g>
<g>
	<path style="fill:#FFFFFF;" d="M562.249,494.08c-2.269-0.459-4.487,1.008-4.947,3.28c-0.67,3.311-1.105,6.7-1.293,10.074
		c-0.128,2.314,1.643,4.295,3.958,4.424c0.079,0.004,0.158,0.006,0.237,0.006c2.211,0,4.063-1.729,4.187-3.964
		c0.166-2.972,0.549-5.958,1.14-8.874C565.989,496.755,564.52,494.54,562.249,494.08z"/>
</g>
<radialGradient id="SVGID_00000134970945401180331410000001103608931087469979_" cx="631.825" cy="514.2072" r="151.8509" gradientUnits="userSpaceOnUse">
	<stop  offset="0" style="stop-color:#FFFFFF"/>
	<stop  offset="0.0888" style="stop-color:#FBFBFB"/>
	<stop  offset="0.1713" style="stop-color:#F0F0F0"/>
	<stop  offset="0.2514" style="stop-color:#DDDDDD"/>
	<stop  offset="0.3301" style="stop-color:#C3C3C3"/>
	<stop  offset="0.4068" style="stop-color:#A1A1A1"/>
	<stop  offset="0.4694" style="stop-color:#808080"/>
</radialGradient>
<path style="opacity:0.4;fill:url(#SVGID_00000134970945401180331410000001103608931087469979_);" d="M639.473,438.184
	c-41.114-6.577-79.772,21.42-86.348,62.531c-6.575,41.11,21.422,79.769,62.534,86.345c41.112,6.576,79.771-21.42,86.346-62.532
	C708.581,483.418,680.584,444.758,639.473,438.184z"/>
</svg>
